{"glyphs":{"0":{"ha":847,"x_min":44,"x_max":804,"o":"m 424 -10 q 623 49 538 -10 q 756 222 708 108 q 804 501 804 336 q 759 775 804 660 q 630 952 714 890 q 428 1014 546 1014 q 226 955 313 1014 q 92 782 140 896 q 44 504 44 668 q 90 231 44 346 q 220 53 135 115 q 424 -10 306 -10 m 425 163 q 333 192 374 163 q 271 297 293 222 q 249 503 249 371 q 271 708 249 635 q 333 812 293 782 q 425 842 374 842 q 516 812 476 842 q 578 708 556 782 q 601 503 601 635 q 578 297 601 371 q 516 192 556 222 q 425 163 476 163 z "},"1":{"ha":611,"x_min":31,"x_max":488,"o":"m 283 0 l 488 0 l 488 1001 l 294 1001 q 229 876 288 924 q 72 828 171 828 l 31 828 l 31 672 l 283 672 l 283 0 z "},"2":{"ha":825,"x_min":56,"x_max":765,"o":"m 56 0 l 765 0 l 765 179 l 315 179 q 374 257 335 221 q 464 327 414 293 q 565 399 514 361 q 659 481 615 436 q 729 583 703 526 q 756 714 756 640 q 713 874 756 807 q 594 978 671 942 q 415 1014 518 1014 q 225 972 307 1014 q 99 854 143 931 q 58 675 56 778 l 261 675 q 295 797 256 754 q 403 839 335 839 q 506 803 467 839 q 544 704 544 767 q 509 606 544 649 q 418 523 474 563 q 300 439 363 483 q 182 339 238 394 q 91 208 126 283 q 56 29 56 133 l 56 0 z "},"3":{"ha":853,"x_min":46,"x_max":783,"o":"m 413 -12 q 606 25 522 -12 q 736 130 689 63 q 783 286 783 197 q 742 433 783 371 q 625 514 701 494 l 625 522 q 729 605 690 546 q 768 744 768 664 q 725 887 768 826 q 605 981 682 947 q 424 1014 528 1014 q 231 974 313 1014 q 103 863 149 935 q 54 694 57 792 l 258 694 q 301 801 260 761 q 414 840 342 840 q 520 808 481 840 q 560 715 560 775 q 523 624 560 660 q 417 588 486 588 l 308 588 l 308 435 l 433 435 q 535 402 496 435 q 575 306 575 369 q 531 200 575 239 q 413 161 486 161 q 294 202 339 161 q 249 311 249 243 l 46 311 q 146 76 50 165 q 413 -12 242 -12 z "},"4":{"ha":910,"x_min":51,"x_max":856,"o":"m 521 0 l 725 0 l 725 229 l 854 229 l 856 396 l 725 396 l 725 1001 l 471 1001 l 51 382 l 51 229 l 519 229 l 521 0 m 254 396 l 521 783 l 521 396 l 254 396 z "},"5":{"ha":868,"x_min":65,"x_max":804,"o":"m 431 -12 q 630 31 546 -12 q 759 154 714 75 q 804 338 804 233 q 765 512 804 436 q 651 631 725 588 q 475 674 578 674 q 369 656 419 674 q 290 611 318 639 l 282 614 l 292 824 l 744 824 l 744 1001 l 111 1001 l 85 408 l 279 408 q 333 477 294 450 q 431 504 371 504 q 553 457 508 504 q 597 332 597 410 q 553 213 597 260 q 432 165 510 165 q 318 203 361 165 q 272 304 275 242 l 65 304 q 113 138 68 210 q 240 27 158 67 q 431 -12 321 -12 z "},"6":{"ha":868,"x_min":63,"x_max":813,"o":"m 444 -12 q 637 28 554 -12 q 766 147 719 69 q 813 333 813 224 q 774 506 813 432 q 665 622 735 581 q 500 664 594 664 q 362 632 419 664 q 278 547 304 600 l 269 547 q 311 760 268 683 q 456 838 354 838 q 553 812 513 838 q 604 740 594 786 l 803 740 q 699 939 790 864 q 457 1014 608 1014 q 165 881 267 1014 q 63 478 63 749 q 164 108 63 228 q 444 -12 265 -12 m 449 165 q 331 211 375 165 q 288 336 288 257 q 331 461 288 413 q 449 510 374 510 q 565 464 522 510 q 608 339 608 418 q 565 213 608 260 q 449 165 522 165 z "},"7":{"ha":869,"x_min":61,"x_max":794,"o":"m 281 0 l 500 0 q 522 272 500 153 q 585 490 544 392 q 678 677 625 589 q 794 854 732 765 l 794 1001 l 61 1001 l 61 650 l 224 650 l 224 824 l 551 824 q 422 610 485 728 q 320 342 360 492 q 281 0 281 192 z "},"8":{"ha":869,"x_min":60,"x_max":810,"o":"m 435 -10 q 632 24 547 -10 q 763 122 717 58 q 810 272 810 185 q 761 426 810 361 q 628 504 713 490 l 628 513 q 751 595 710 533 q 793 733 793 657 q 699 936 793 858 q 435 1014 604 1014 q 172 937 267 1014 q 78 736 78 860 q 119 594 78 656 q 242 513 161 532 l 242 504 q 109 423 158 489 q 60 271 60 357 q 107 121 60 183 q 238 24 154 58 q 435 -10 322 -10 m 435 586 q 324 621 363 586 q 285 715 285 656 q 325 810 285 776 q 435 844 365 844 q 545 810 504 844 q 586 715 586 776 q 549 622 586 657 q 435 586 511 586 m 435 167 q 319 201 363 167 q 276 299 276 235 q 315 391 276 356 q 435 426 354 426 q 555 391 515 426 q 594 299 594 356 q 551 201 594 235 q 435 167 508 167 z "},"9":{"ha":868,"x_min":57,"x_max":807,"o":"m 417 -12 q 705 116 603 -12 q 807 522 807 244 q 706 894 807 774 q 424 1014 604 1014 q 233 973 315 1014 q 103 856 150 932 q 57 669 57 779 q 96 496 57 571 q 205 380 135 421 q 368 339 275 339 q 508 371 450 339 q 590 454 565 403 l 600 454 q 560 240 601 317 q 418 164 518 164 q 319 190 358 164 q 269 261 279 217 l 71 261 q 174 63 83 139 q 417 -12 265 -12 m 419 492 q 303 538 347 492 q 260 663 260 583 q 303 790 260 743 q 419 836 347 836 q 538 790 493 836 q 582 667 582 744 q 538 541 582 590 q 419 492 494 492 z "},"A":{"ha":983,"x_min":1,"x_max":982,"o":"m 1 0 l 226 0 l 294 208 l 689 208 l 757 0 l 982 0 l 644 1013 l 339 1013 l 1 0 m 344 374 l 431 632 l 488 817 l 496 817 l 553 632 l 639 374 l 344 374 z "},"Á":{"ha":983,"x_min":1,"x_max":982,"o":"m 1 0 l 226 0 l 294 208 l 689 208 l 757 0 l 982 0 l 644 1013 l 339 1013 l 1 0 m 344 374 l 431 632 l 488 817 l 496 817 l 553 632 l 639 374 l 344 374 z "},"Â":{"ha":983,"x_min":1,"x_max":982,"o":"m 1 0 l 226 0 l 294 208 l 689 208 l 757 0 l 982 0 l 644 1013 l 339 1013 l 1 0 m 344 374 l 431 632 l 488 817 l 496 817 l 553 632 l 639 374 l 344 374 z "},"Ä":{"ha":983,"x_min":1,"x_max":982,"o":"m 1 0 l 226 0 l 294 208 l 689 208 l 757 0 l 982 0 l 644 1013 l 339 1013 l 1 0 m 344 374 l 431 632 l 488 817 l 496 817 l 553 632 l 639 374 l 344 374 z "},"À":{"ha":983,"x_min":1,"x_max":982,"o":"m 1 0 l 226 0 l 294 208 l 689 208 l 757 0 l 982 0 l 644 1013 l 339 1013 l 1 0 m 344 374 l 431 632 l 488 817 l 496 817 l 553 632 l 639 374 l 344 374 z "},"Å":{"ha":983,"x_min":1,"x_max":982,"o":"m 1 0 l 226 0 l 294 208 l 689 208 l 757 0 l 982 0 l 644 1013 l 339 1013 l 1 0 m 344 374 l 431 632 l 488 817 l 496 817 l 553 632 l 639 374 l 344 374 z "},"Ã":{"ha":983,"x_min":1,"x_max":982,"o":"m 1 0 l 226 0 l 294 208 l 689 208 l 757 0 l 982 0 l 644 1013 l 339 1013 l 1 0 m 344 374 l 431 632 l 488 817 l 496 817 l 553 632 l 639 374 l 344 374 z "},"Æ":{"ha":1339,"x_min":1,"x_max":1274,"o":"m 1 0 l 226 0 l 294 208 l 540 208 l 540 0 l 1274 0 l 1274 185 l 750 185 l 750 428 l 1201 428 l 1201 601 l 750 601 l 750 828 l 1271 828 l 1271 1013 l 339 1013 l 1 0 m 344 374 l 431 632 l 488 817 l 540 817 l 540 374 l 344 374 z "},"B":{"ha":992,"x_min":110,"x_max":944,"o":"m 110 0 l 581 0 q 849 74 754 0 q 944 290 944 147 q 898 440 944 376 q 764 521 851 503 l 764 532 q 877 614 838 553 q 917 753 917 675 q 839 941 917 869 q 607 1013 761 1013 l 110 1013 l 110 0 m 319 597 l 319 847 l 549 847 q 658 816 617 847 q 699 722 699 785 q 665 632 699 667 q 556 597 631 597 l 319 597 m 319 167 l 319 438 l 565 438 q 681 405 639 438 q 724 303 724 372 q 683 204 724 242 q 557 167 643 167 l 319 167 z "},"C":{"ha":1076,"x_min":49,"x_max":1029,"o":"m 557 -12 q 787 33 685 -12 q 953 160 889 78 q 1029 350 1017 242 l 810 350 q 724 221 793 269 q 557 172 654 172 q 349 256 426 172 q 272 507 272 339 q 349 757 272 674 q 557 840 426 840 q 724 791 657 840 q 810 664 792 742 l 1029 664 q 953 853 1015 772 q 789 980 890 935 q 557 1025 688 1025 q 291 964 406 1025 q 113 787 176 903 q 49 507 49 671 q 113 226 49 343 q 291 49 176 110 q 557 -12 406 -12 z "},"Ç":{"ha":1076,"x_min":49,"x_max":1029,"o":"m 557 -12 q 787 33 685 -12 q 953 160 889 78 q 1029 350 1017 242 l 810 350 q 724 221 793 269 q 557 172 654 172 q 349 256 426 172 q 272 507 272 339 q 349 757 272 674 q 557 840 426 840 q 724 791 657 840 q 810 664 792 742 l 1029 664 q 953 853 1015 772 q 789 980 890 935 q 557 1025 688 1025 q 291 964 406 1025 q 113 787 176 903 q 49 507 49 671 q 113 226 49 343 q 291 49 176 110 q 557 -12 406 -12 z "},"D":{"ha":1057,"x_min":110,"x_max":1007,"o":"m 110 0 l 540 0 q 795 63 692 0 q 953 240 899 126 q 1007 506 1007 354 q 953 771 1007 657 q 796 949 900 885 q 540 1013 692 1013 l 110 1013 l 110 0 m 326 185 l 326 829 l 506 829 q 652 799 589 829 q 751 699 715 769 q 786 510 786 629 q 750 317 786 388 q 651 215 714 246 q 506 185 588 185 l 326 185 z "},"Ð":{"ha":1057,"x_min":11,"x_max":1007,"o":"m 110 0 l 540 0 q 795 63 692 0 q 953 240 899 126 q 1007 506 1007 354 q 953 771 1007 657 q 796 949 900 885 q 540 1013 692 1013 l 110 1013 l 110 582 l 11 582 l 11 431 l 110 431 l 110 0 m 326 185 l 326 431 l 503 431 l 503 582 l 326 582 l 326 829 l 506 829 q 652 799 589 829 q 751 699 715 769 q 786 510 786 629 q 750 317 786 388 q 651 215 714 246 q 506 185 588 185 l 326 185 z "},"E":{"ha":915,"x_min":110,"x_max":849,"o":"m 110 0 l 849 0 l 849 185 l 326 185 l 326 428 l 778 428 l 778 601 l 326 601 l 326 828 l 846 828 l 846 1013 l 110 1013 l 110 0 z "},"É":{"ha":915,"x_min":110,"x_max":849,"o":"m 110 0 l 849 0 l 849 185 l 326 185 l 326 428 l 778 428 l 778 601 l 326 601 l 326 828 l 846 828 l 846 1013 l 110 1013 l 110 0 z "},"Ê":{"ha":915,"x_min":110,"x_max":849,"o":"m 110 0 l 849 0 l 849 185 l 326 185 l 326 428 l 778 428 l 778 601 l 326 601 l 326 828 l 846 828 l 846 1013 l 110 1013 l 110 0 z "},"Ë":{"ha":915,"x_min":110,"x_max":849,"o":"m 110 0 l 849 0 l 849 185 l 326 185 l 326 428 l 778 428 l 778 601 l 326 601 l 326 828 l 846 828 l 846 1013 l 110 1013 l 110 0 z "},"È":{"ha":915,"x_min":110,"x_max":849,"o":"m 110 0 l 849 0 l 849 185 l 326 185 l 326 428 l 778 428 l 778 601 l 326 601 l 326 828 l 846 828 l 846 1013 l 110 1013 l 110 0 z "},"F":{"ha":879,"x_min":110,"x_max":844,"o":"m 110 0 l 326 0 l 326 397 l 789 397 l 789 574 l 326 574 l 326 828 l 844 828 l 844 1013 l 110 1013 l 110 0 z "},"G":{"ha":1097,"x_min":49,"x_max":1047,"o":"m 550 -12 q 812 44 700 -12 q 985 203 924 100 q 1047 443 1047 306 l 1047 540 l 550 540 l 550 386 l 828 386 q 744 226 817 285 q 554 168 672 168 q 347 253 424 168 q 271 507 271 339 q 350 758 271 675 q 560 840 429 840 q 724 796 658 840 q 807 672 789 751 l 1029 672 q 958 857 1018 778 q 796 981 897 936 q 560 1025 694 1025 q 292 964 407 1025 q 113 787 176 903 q 49 507 49 671 q 108 235 49 351 q 281 53 168 118 q 550 -12 393 -12 z "},"H":{"ha":1128,"x_min":110,"x_max":1019,"o":"m 110 0 l 326 0 l 326 421 l 803 421 l 803 0 l 1019 0 l 1019 1013 l 803 1013 l 803 606 l 326 606 l 326 1013 l 110 1013 l 110 0 z "},"I":{"ha":435,"x_min":110,"x_max":326,"o":"m 110 0 l 326 0 l 326 1013 l 110 1013 l 110 0 z "},"Í":{"ha":435,"x_min":110,"x_max":422,"o":"m 110 0 l 326 0 l 326 1013 l 110 1013 l 110 0 z "},"Î":{"ha":435,"x_min":-36,"x_max":474,"o":"m 110 0 l 326 0 l 326 1013 l 110 1013 l 110 0 z "},"Ï":{"ha":435,"x_min":-11,"x_max":449,"o":"m 110 0 l 326 0 l 326 1013 l 110 1013 l 110 0 z "},"Ì":{"ha":435,"x_min":14,"x_max":326,"o":"m 110 0 l 326 0 l 326 1013 l 110 1013 l 110 0 z "},"J":{"ha":592,"x_min":21,"x_max":482,"o":"m 168 -10 q 397 60 311 -10 q 482 289 482 129 l 482 1013 l 267 1013 l 267 306 q 122 168 267 168 q 66 174 92 168 q 21 190 40 181 l 21 17 q 85 -2 46 6 q 168 -10 125 -10 z "},"K":{"ha":1013,"x_min":110,"x_max":994,"o":"m 110 0 l 326 0 l 326 279 l 467 436 l 739 0 l 994 0 l 615 592 l 989 1013 l 731 1013 l 326 533 l 326 1013 l 110 1013 l 110 0 z "},"L":{"ha":789,"x_min":110,"x_max":776,"o":"m 110 0 l 776 0 l 776 192 l 326 192 l 326 1013 l 110 1013 l 110 0 z "},"M":{"ha":1297,"x_min":110,"x_max":1189,"o":"m 110 0 l 321 0 l 321 397 l 317 786 l 328 786 l 565 0 l 735 0 l 972 786 l 982 786 l 979 400 l 979 0 l 1189 0 l 1189 1013 l 860 1013 l 654 350 l 646 350 l 438 1013 l 110 1013 l 110 0 z "},"N":{"ha":1114,"x_min":110,"x_max":1004,"o":"m 110 0 l 329 0 l 329 407 l 324 700 l 333 700 l 760 0 l 1004 0 l 1004 1013 l 796 1013 l 796 621 l 804 297 l 794 297 l 368 1013 l 110 1013 l 110 0 z "},"Ñ":{"ha":1114,"x_min":110,"x_max":1004,"o":"m 110 0 l 329 0 l 329 407 l 324 700 l 333 700 l 760 0 l 1004 0 l 1004 1013 l 796 1013 l 796 621 l 804 297 l 794 297 l 368 1013 l 110 1013 l 110 0 z "},"O":{"ha":1115,"x_min":49,"x_max":1065,"o":"m 557 -12 q 824 49 710 -12 q 1002 226 939 110 q 1065 507 1065 342 q 1002 787 1065 671 q 825 964 939 903 q 557 1025 711 1025 q 290 964 404 1025 q 112 788 175 903 q 49 507 49 672 q 112 226 49 343 q 290 49 175 110 q 557 -12 404 -12 m 557 172 q 349 256 426 172 q 272 507 272 339 q 349 757 272 674 q 557 840 426 840 q 765 757 688 840 q 843 507 843 674 q 766 256 843 340 q 557 172 689 172 z "},"Ó":{"ha":1115,"x_min":49,"x_max":1065,"o":"m 557 -12 q 824 49 710 -12 q 1002 226 939 110 q 1065 507 1065 342 q 1002 787 1065 671 q 825 964 939 903 q 557 1025 711 1025 q 290 964 404 1025 q 112 788 175 903 q 49 507 49 672 q 112 226 49 343 q 290 49 175 110 q 557 -12 404 -12 m 557 172 q 349 256 426 172 q 272 507 272 339 q 349 757 272 674 q 557 840 426 840 q 765 757 688 840 q 843 507 843 674 q 766 256 843 340 q 557 172 689 172 z "},"Ô":{"ha":1115,"x_min":49,"x_max":1065,"o":"m 557 -12 q 824 49 710 -12 q 1002 226 939 110 q 1065 507 1065 342 q 1002 787 1065 671 q 825 964 939 903 q 557 1025 711 1025 q 290 964 404 1025 q 112 788 175 903 q 49 507 49 672 q 112 226 49 343 q 290 49 175 110 q 557 -12 404 -12 m 557 172 q 349 256 426 172 q 272 507 272 339 q 349 757 272 674 q 557 840 426 840 q 765 757 688 840 q 843 507 843 674 q 766 256 843 340 q 557 172 689 172 z "},"Ö":{"ha":1115,"x_min":49,"x_max":1065,"o":"m 557 -12 q 824 49 710 -12 q 1002 226 939 110 q 1065 507 1065 342 q 1002 787 1065 671 q 825 964 939 903 q 557 1025 711 1025 q 290 964 404 1025 q 112 788 175 903 q 49 507 49 672 q 112 226 49 343 q 290 49 175 110 q 557 -12 404 -12 m 557 172 q 349 256 426 172 q 272 507 272 339 q 349 757 272 674 q 557 840 426 840 q 765 757 688 840 q 843 507 843 674 q 766 256 843 340 q 557 172 689 172 z "},"Ò":{"ha":1115,"x_min":49,"x_max":1065,"o":"m 557 -12 q 824 49 710 -12 q 1002 226 939 110 q 1065 507 1065 342 q 1002 787 1065 671 q 825 964 939 903 q 557 1025 711 1025 q 290 964 404 1025 q 112 788 175 903 q 49 507 49 672 q 112 226 49 343 q 290 49 175 110 q 557 -12 404 -12 m 557 172 q 349 256 426 172 q 272 507 272 339 q 349 757 272 674 q 557 840 426 840 q 765 757 688 840 q 843 507 843 674 q 766 256 843 340 q 557 172 689 172 z "},"Ø":{"ha":1115,"x_min":49,"x_max":1065,"o":"m 557 -12 q 824 49 710 -12 q 1002 226 939 110 q 1065 507 1065 342 q 1002 787 1065 671 q 825 964 939 903 q 557 1025 711 1025 q 290 964 404 1025 q 112 788 175 903 q 49 507 49 672 q 112 226 49 343 q 290 49 175 110 q 557 -12 404 -12 m 557 172 q 349 256 426 172 q 272 507 272 339 q 349 757 272 674 q 557 840 426 840 q 765 757 688 840 q 843 507 843 674 q 766 256 843 340 q 557 172 689 172 m 67 -56 l 224 -56 l 1049 1069 l 896 1069 l 67 -56 z "},"Õ":{"ha":1115,"x_min":49,"x_max":1065,"o":"m 557 -12 q 824 49 710 -12 q 1002 226 939 110 q 1065 507 1065 342 q 1002 787 1065 671 q 825 964 939 903 q 557 1025 711 1025 q 290 964 404 1025 q 112 788 175 903 q 49 507 49 672 q 112 226 49 343 q 290 49 175 110 q 557 -12 404 -12 m 557 172 q 349 256 426 172 q 272 507 272 339 q 349 757 272 674 q 557 840 426 840 q 765 757 688 840 q 843 507 843 674 q 766 256 843 340 q 557 172 689 172 z "},"Œ":{"ha":1556,"x_min":49,"x_max":1490,"o":"m 515 0 l 1490 0 l 1490 185 l 967 185 l 967 428 l 1418 428 l 1418 601 l 967 601 l 967 828 l 1486 828 l 1486 1013 l 515 1013 q 261 949 365 1013 q 103 772 157 886 q 49 507 49 658 q 103 242 49 356 q 261 64 157 128 q 515 0 365 0 m 551 183 q 406 213 469 183 q 306 313 342 243 q 271 503 271 383 q 307 696 271 625 q 407 797 343 767 q 551 828 471 828 l 750 828 l 750 183 l 551 183 z "},"P":{"ha":938,"x_min":110,"x_max":906,"o":"m 110 0 l 326 0 l 326 346 l 543 344 q 739 387 658 344 q 863 505 819 429 q 906 681 906 581 q 807 926 906 839 q 543 1013 708 1013 l 110 1013 l 110 0 m 507 829 q 596 815 556 829 q 661 766 636 800 q 686 672 686 732 q 661 577 686 613 q 596 527 636 542 q 507 513 556 513 l 326 514 l 326 829 l 507 829 z "},"Þ":{"ha":921,"x_min":110,"x_max":888,"o":"m 110 0 l 326 0 l 326 174 l 525 172 q 721 215 640 172 q 844 333 801 257 q 888 508 888 408 q 790 753 888 667 q 526 840 692 840 l 326 840 l 326 1013 l 110 1013 l 110 0 m 489 657 q 578 642 538 657 q 643 594 618 628 q 668 500 668 560 q 643 405 668 440 q 578 355 618 369 q 489 340 538 340 l 326 342 l 326 657 l 489 657 z "},"Q":{"ha":1115,"x_min":49,"x_max":1065,"o":"m 943 -242 l 978 -242 l 978 -54 l 733 22 q 978 192 890 67 q 1065 507 1065 318 q 1002 787 1065 671 q 825 964 939 903 q 557 1025 711 1025 q 290 964 404 1025 q 112 788 175 903 q 49 507 49 672 q 110 230 49 344 q 282 53 171 115 q 542 -12 393 -8 l 943 -242 m 557 172 q 349 256 426 172 q 272 507 272 339 q 349 757 272 674 q 557 840 426 840 q 765 757 688 840 q 843 507 843 674 q 766 256 843 340 q 557 172 689 172 z "},"R":{"ha":1018,"x_min":110,"x_max":963,"o":"m 110 0 l 326 0 l 326 372 l 567 372 q 690 338 658 372 q 721 238 721 303 l 721 117 q 724 49 721 79 q 738 0 728 19 l 956 0 q 940 59 942 29 q 938 117 938 89 l 938 275 q 788 471 938 442 l 788 481 q 916 566 869 500 q 963 722 963 632 q 875 938 963 863 q 610 1013 788 1013 l 110 1013 l 110 0 m 326 544 l 326 833 l 578 833 q 697 801 651 833 q 742 693 742 769 q 704 587 742 629 q 578 544 667 544 l 326 544 z "},"S":{"ha":935,"x_min":47,"x_max":882,"o":"m 465 -12 q 777 73 672 -12 q 882 294 882 158 q 852 444 882 386 q 773 534 822 501 q 663 583 724 567 q 538 610 601 600 q 397 638 450 625 q 318 674 343 650 q 293 744 293 697 q 337 830 293 799 q 457 861 381 861 q 580 829 529 861 q 633 724 631 797 l 851 724 q 803 882 851 814 q 669 988 756 950 q 464 1025 583 1025 q 174 942 279 1025 q 68 717 68 860 q 157 517 68 585 q 421 422 246 450 q 564 392 513 407 q 636 349 615 376 q 657 274 657 322 q 607 183 657 214 q 474 153 557 153 q 317 198 365 153 q 267 318 269 243 l 47 318 q 153 79 47 171 q 465 -12 260 -12 z "},"ẞ":{"ha":997,"x_min":110,"x_max":950,"o":"m 110 0 l 326 0 l 326 832 l 690 832 l 499 574 l 499 472 l 551 472 q 725 324 725 472 q 685 217 725 260 q 556 175 646 175 l 413 175 l 413 0 l 593 0 q 853 78 757 0 q 950 299 950 157 q 886 485 950 411 q 710 567 822 558 l 710 576 l 892 811 l 892 1013 l 110 1013 l 110 0 z "},"T":{"ha":843,"x_min":13,"x_max":832,"o":"m 311 0 l 526 0 l 526 825 l 832 825 l 832 1013 l 13 1013 l 13 825 l 311 825 l 311 0 z "},"U":{"ha":1065,"x_min":101,"x_max":965,"o":"m 532 -12 q 763 35 665 -12 q 913 171 860 82 q 965 385 965 260 l 965 1013 l 750 1013 l 750 386 q 695 234 750 289 q 533 179 640 179 q 374 231 432 179 q 317 386 317 283 l 317 1013 l 101 1013 l 101 385 q 152 175 101 264 q 299 37 203 86 q 532 -12 396 -12 z "},"Ú":{"ha":1065,"x_min":101,"x_max":965,"o":"m 532 -12 q 763 35 665 -12 q 913 171 860 82 q 965 385 965 260 l 965 1013 l 750 1013 l 750 386 q 695 234 750 289 q 533 179 640 179 q 374 231 432 179 q 317 386 317 283 l 317 1013 l 101 1013 l 101 385 q 152 175 101 264 q 299 37 203 86 q 532 -12 396 -12 z "},"Û":{"ha":1065,"x_min":101,"x_max":965,"o":"m 532 -12 q 763 35 665 -12 q 913 171 860 82 q 965 385 965 260 l 965 1013 l 750 1013 l 750 386 q 695 234 750 289 q 533 179 640 179 q 374 231 432 179 q 317 386 317 283 l 317 1013 l 101 1013 l 101 385 q 152 175 101 264 q 299 37 203 86 q 532 -12 396 -12 z "},"Ü":{"ha":1065,"x_min":101,"x_max":965,"o":"m 532 -12 q 763 35 665 -12 q 913 171 860 82 q 965 385 965 260 l 965 1013 l 750 1013 l 750 386 q 695 234 750 289 q 533 179 640 179 q 374 231 432 179 q 317 386 317 283 l 317 1013 l 101 1013 l 101 385 q 152 175 101 264 q 299 37 203 86 q 532 -12 396 -12 z "},"Ù":{"ha":1065,"x_min":101,"x_max":965,"o":"m 532 -12 q 763 35 665 -12 q 913 171 860 82 q 965 385 965 260 l 965 1013 l 750 1013 l 750 386 q 695 234 750 289 q 533 179 640 179 q 374 231 432 179 q 317 386 317 283 l 317 1013 l 101 1013 l 101 385 q 152 175 101 264 q 299 37 203 86 q 532 -12 396 -12 z "},"V":{"ha":1010,"x_min":6,"x_max":1004,"o":"m 360 0 l 651 0 l 1004 1013 l 763 1013 l 564 388 l 510 206 l 500 206 l 444 388 l 247 1013 l 6 1013 l 360 0 z "},"W":{"ha":1376,"x_min":10,"x_max":1367,"o":"m 225 0 l 521 0 l 685 721 l 694 721 l 854 0 l 1151 0 l 1367 1013 l 1128 1013 l 1038 501 l 996 233 l 986 233 l 822 1013 l 557 1013 l 397 236 l 386 236 l 342 504 l 249 1013 l 10 1013 l 225 0 z "},"Ẃ":{"ha":1376,"x_min":10,"x_max":1367,"o":"m 225 0 l 521 0 l 685 721 l 694 721 l 854 0 l 1151 0 l 1367 1013 l 1128 1013 l 1038 501 l 996 233 l 986 233 l 822 1013 l 557 1013 l 397 236 l 386 236 l 342 504 l 249 1013 l 10 1013 l 225 0 z "},"Ŵ":{"ha":1376,"x_min":10,"x_max":1367,"o":"m 225 0 l 521 0 l 685 721 l 694 721 l 854 0 l 1151 0 l 1367 1013 l 1128 1013 l 1038 501 l 996 233 l 986 233 l 822 1013 l 557 1013 l 397 236 l 386 236 l 342 504 l 249 1013 l 10 1013 l 225 0 z "},"Ẅ":{"ha":1376,"x_min":10,"x_max":1367,"o":"m 225 0 l 521 0 l 685 721 l 694 721 l 854 0 l 1151 0 l 1367 1013 l 1128 1013 l 1038 501 l 996 233 l 986 233 l 822 1013 l 557 1013 l 397 236 l 386 236 l 342 504 l 249 1013 l 10 1013 l 225 0 z "},"Ẁ":{"ha":1376,"x_min":10,"x_max":1367,"o":"m 225 0 l 521 0 l 685 721 l 694 721 l 854 0 l 1151 0 l 1367 1013 l 1128 1013 l 1038 501 l 996 233 l 986 233 l 822 1013 l 557 1013 l 397 236 l 386 236 l 342 504 l 249 1013 l 10 1013 l 225 0 z "},"X":{"ha":1022,"x_min":-1,"x_max":1022,"o":"m -1 0 l 250 0 l 506 388 l 511 388 l 765 0 l 1022 0 l 653 543 l 978 1013 l 724 1013 l 511 682 l 506 682 l 293 1013 l 39 1013 l 368 542 l -1 0 z "},"Y":{"ha":974,"x_min":1,"x_max":971,"o":"m 376 0 l 593 0 l 593 386 l 971 1013 l 725 1013 l 490 597 l 481 597 l 249 1013 l 1 1013 l 376 386 l 376 0 z "},"Ý":{"ha":974,"x_min":1,"x_max":971,"o":"m 376 0 l 593 0 l 593 386 l 971 1013 l 725 1013 l 490 597 l 481 597 l 249 1013 l 1 1013 l 376 386 l 376 0 m 408 1099 l 563 1099 l 690 1300 l 486 1300 l 408 1099 z "},"Ŷ":{"ha":974,"x_min":1,"x_max":971,"o":"m 376 0 l 593 0 l 593 386 l 971 1013 l 725 1013 l 490 597 l 481 597 l 249 1013 l 1 1013 l 376 386 l 376 0 m 232 1099 l 406 1099 l 486 1206 l 568 1099 l 742 1099 l 583 1300 l 390 1300 l 232 1099 z "},"Ÿ":{"ha":974,"x_min":1,"x_max":971,"o":"m 376 0 l 593 0 l 593 386 l 971 1013 l 725 1013 l 490 597 l 481 597 l 249 1013 l 1 1013 l 376 386 l 376 0 m 257 1118 l 432 1118 l 432 1300 l 257 1300 l 257 1118 m 540 1118 l 717 1118 l 717 1300 l 540 1300 l 540 1118 z "},"Ỳ":{"ha":974,"x_min":1,"x_max":971,"o":"m 376 0 l 593 0 l 593 386 l 971 1013 l 725 1013 l 490 597 l 481 597 l 249 1013 l 1 1013 l 376 386 l 376 0 m 410 1099 l 564 1099 l 485 1300 l 282 1300 l 410 1099 z "},"Z":{"ha":899,"x_min":53,"x_max":846,"o":"m 53 0 l 846 0 l 846 185 l 317 185 l 832 828 l 832 1013 l 76 1013 l 76 826 l 565 826 l 53 183 l 53 0 z "},"a":{"ha":879,"x_min":43,"x_max":792,"o":"m 340 -12 q 488 27 426 -12 q 576 131 550 67 l 588 131 l 588 0 l 792 0 l 792 744 l 596 744 l 588 615 l 576 615 q 488 719 550 681 q 340 758 426 758 q 125 662 207 758 q 43 372 43 565 q 125 84 43 181 q 340 -12 207 -12 m 418 153 q 297 206 343 153 q 251 372 251 260 q 297 540 251 486 q 418 593 343 593 q 512 567 475 593 q 567 499 549 540 q 585 408 585 457 l 585 338 q 567 248 585 290 q 512 179 549 206 q 418 153 475 153 z "},"á":{"ha":879,"x_min":43,"x_max":792,"o":"m 340 -12 q 488 27 426 -12 q 576 131 550 67 l 588 131 l 588 0 l 792 0 l 792 744 l 596 744 l 588 615 l 576 615 q 488 719 550 681 q 340 758 426 758 q 125 662 207 758 q 43 372 43 565 q 125 84 43 181 q 340 -12 207 -12 m 418 153 q 297 206 343 153 q 251 372 251 260 q 297 540 251 486 q 418 593 343 593 q 512 567 475 593 q 567 499 549 540 q 585 408 585 457 l 585 338 q 567 248 585 290 q 512 179 549 206 q 418 153 475 153 z "},"â":{"ha":879,"x_min":43,"x_max":792,"o":"m 340 -12 q 488 27 426 -12 q 576 131 550 67 l 588 131 l 588 0 l 792 0 l 792 744 l 596 744 l 588 615 l 576 615 q 488 719 550 681 q 340 758 426 758 q 125 662 207 758 q 43 372 43 565 q 125 84 43 181 q 340 -12 207 -12 m 418 153 q 297 206 343 153 q 251 372 251 260 q 297 540 251 486 q 418 593 343 593 q 512 567 475 593 q 567 499 549 540 q 585 408 585 457 l 585 338 q 567 248 585 290 q 512 179 549 206 q 418 153 475 153 z "},"ä":{"ha":879,"x_min":43,"x_max":792,"o":"m 340 -12 q 488 27 426 -12 q 576 131 550 67 l 588 131 l 588 0 l 792 0 l 792 744 l 596 744 l 588 615 l 576 615 q 488 719 550 681 q 340 758 426 758 q 125 662 207 758 q 43 372 43 565 q 125 84 43 181 q 340 -12 207 -12 m 418 153 q 297 206 343 153 q 251 372 251 260 q 297 540 251 486 q 418 593 343 593 q 512 567 475 593 q 567 499 549 540 q 585 408 585 457 l 585 338 q 567 248 585 290 q 512 179 549 206 q 418 153 475 153 z "},"à":{"ha":879,"x_min":43,"x_max":792,"o":"m 340 -12 q 488 27 426 -12 q 576 131 550 67 l 588 131 l 588 0 l 792 0 l 792 744 l 596 744 l 588 615 l 576 615 q 488 719 550 681 q 340 758 426 758 q 125 662 207 758 q 43 372 43 565 q 125 84 43 181 q 340 -12 207 -12 m 418 153 q 297 206 343 153 q 251 372 251 260 q 297 540 251 486 q 418 593 343 593 q 512 567 475 593 q 567 499 549 540 q 585 408 585 457 l 585 338 q 567 248 585 290 q 512 179 549 206 q 418 153 475 153 z "},"å":{"ha":879,"x_min":43,"x_max":792,"o":"m 340 -12 q 488 27 426 -12 q 576 131 550 67 l 588 131 l 588 0 l 792 0 l 792 744 l 596 744 l 588 615 l 576 615 q 488 719 550 681 q 340 758 426 758 q 125 662 207 758 q 43 372 43 565 q 125 84 43 181 q 340 -12 207 -12 m 418 153 q 297 206 343 153 q 251 372 251 260 q 297 540 251 486 q 418 593 343 593 q 512 567 475 593 q 567 499 549 540 q 585 408 585 457 l 585 338 q 567 248 585 290 q 512 179 549 206 q 418 153 475 153 z "},"ã":{"ha":879,"x_min":43,"x_max":792,"o":"m 340 -12 q 488 27 426 -12 q 576 131 550 67 l 588 131 l 588 0 l 792 0 l 792 744 l 596 744 l 588 615 l 576 615 q 488 719 550 681 q 340 758 426 758 q 125 662 207 758 q 43 372 43 565 q 125 84 43 181 q 340 -12 207 -12 m 418 153 q 297 206 343 153 q 251 372 251 260 q 297 540 251 486 q 418 593 343 593 q 512 567 475 593 q 567 499 549 540 q 585 408 585 457 l 585 338 q 567 248 585 290 q 512 179 549 206 q 418 153 475 153 z "},"æ":{"ha":1403,"x_min":43,"x_max":1371,"o":"m 338 -12 q 489 27 428 -12 q 576 131 550 67 l 588 131 l 594 0 l 749 0 l 749 119 l 760 119 q 857 22 788 57 q 1019 -12 926 -12 q 1181 19 1110 -12 q 1298 106 1253 50 q 1353 236 1343 161 l 1160 236 q 1108 167 1150 193 q 1010 142 1067 142 q 885 190 933 142 q 839 326 838 238 l 1357 326 q 1336 551 1371 454 q 1222 703 1301 649 q 1018 758 1142 758 q 864 722 933 758 q 764 625 794 686 l 753 625 l 753 744 l 596 744 l 588 615 l 576 615 q 489 719 550 681 q 338 758 428 758 q 125 662 207 758 q 43 372 43 565 q 125 84 43 181 q 338 -12 207 -12 m 840 453 q 889 563 846 522 q 1001 604 932 604 q 1113 566 1071 604 q 1157 453 1156 528 l 840 453 m 418 153 q 297 206 343 153 q 251 372 251 260 q 297 540 251 486 q 418 593 343 593 q 512 567 475 593 q 567 499 549 540 q 585 408 585 457 l 585 338 q 567 248 585 290 q 512 179 549 206 q 418 153 475 153 z "},"b":{"ha":879,"x_min":88,"x_max":836,"o":"m 539 -14 q 754 83 672 -14 q 836 372 836 181 q 754 662 836 565 q 539 758 672 758 q 391 719 453 758 q 303 615 329 681 l 292 615 l 292 1013 l 88 1013 l 88 0 l 283 0 l 292 129 l 303 129 q 391 26 329 65 q 539 -14 453 -14 m 461 151 q 367 178 404 151 q 311 247 329 204 q 293 336 293 289 l 293 408 q 311 498 293 456 q 367 567 329 540 q 461 593 404 593 q 582 540 536 593 q 628 372 628 486 q 582 205 628 258 q 461 151 536 151 z "},"c":{"ha":796,"x_min":43,"x_max":758,"o":"m 413 -12 q 588 23 511 -12 q 709 123 664 58 q 758 275 754 188 l 560 275 q 516 188 554 221 q 413 154 478 154 q 295 208 340 154 q 250 372 250 263 q 292 532 250 472 q 414 592 333 592 q 508 562 469 592 q 557 474 547 532 l 757 474 q 709 622 753 558 q 590 722 665 686 q 419 758 515 758 q 221 710 306 758 q 90 576 136 663 q 43 372 43 489 q 89 170 43 257 q 218 35 135 83 q 413 -12 301 -12 z "},"ç":{"ha":796,"x_min":43,"x_max":758,"o":"m 413 -12 q 588 23 511 -12 q 709 123 664 58 q 758 275 754 188 l 560 275 q 516 188 554 221 q 413 154 478 154 q 295 208 340 154 q 250 372 250 263 q 292 532 250 472 q 414 592 333 592 q 508 562 469 592 q 557 474 547 532 l 757 474 q 709 622 753 558 q 590 722 665 686 q 419 758 515 758 q 221 710 306 758 q 90 576 136 663 q 43 372 43 489 q 89 170 43 257 q 218 35 135 83 q 413 -12 301 -12 z "},"d":{"ha":879,"x_min":43,"x_max":792,"o":"m 340 -12 q 488 27 426 -12 q 576 131 550 67 l 588 131 l 594 0 l 792 0 l 792 1013 l 588 1013 l 588 615 l 576 615 q 488 719 550 681 q 340 758 426 758 q 125 662 207 758 q 43 372 43 565 q 125 84 43 181 q 340 -12 207 -12 m 418 153 q 297 206 343 153 q 251 372 251 260 q 297 540 251 486 q 418 593 343 593 q 512 567 475 593 q 567 499 549 540 q 585 408 585 457 l 585 338 q 567 248 585 290 q 512 179 549 206 q 418 153 475 153 z "},"e":{"ha":808,"x_min":43,"x_max":775,"o":"m 414 -12 q 582 19 508 -12 q 702 106 656 50 q 758 236 749 161 l 565 236 q 513 167 554 193 q 414 142 472 142 q 290 190 338 142 q 244 326 243 238 l 763 326 q 739 548 775 450 q 619 702 703 646 q 407 758 536 758 q 215 710 297 758 q 88 575 133 663 q 43 367 43 488 q 88 167 43 253 q 215 35 132 82 q 414 -12 297 -12 m 407 604 q 515 568 471 604 q 563 457 558 532 l 246 457 q 294 565 251 525 q 407 604 338 604 z "},"é":{"ha":808,"x_min":43,"x_max":775,"o":"m 414 -12 q 582 19 508 -12 q 702 106 656 50 q 758 236 749 161 l 565 236 q 514 167 554 193 q 414 142 474 142 q 290 190 338 142 q 244 326 243 238 l 763 326 q 739 549 775 451 q 619 702 703 646 q 407 758 536 758 q 215 710 297 758 q 88 575 133 663 q 43 367 43 488 q 88 167 43 253 q 215 35 132 82 q 414 -12 297 -12 m 407 604 q 517 566 474 604 q 563 453 560 528 l 244 453 q 293 563 250 522 q 407 604 336 604 z "},"ê":{"ha":808,"x_min":43,"x_max":775,"o":"m 414 -12 q 582 19 508 -12 q 702 106 656 50 q 758 236 749 161 l 565 236 q 514 167 554 193 q 414 142 474 142 q 290 190 338 142 q 244 326 243 238 l 763 326 q 739 549 775 451 q 619 702 703 646 q 407 758 536 758 q 215 710 297 758 q 88 575 133 663 q 43 367 43 488 q 88 167 43 253 q 215 35 132 82 q 414 -12 297 -12 m 407 604 q 517 566 474 604 q 563 453 560 528 l 244 453 q 293 563 250 522 q 407 604 336 604 z "},"ë":{"ha":808,"x_min":43,"x_max":775,"o":"m 414 -12 q 582 19 508 -12 q 702 106 656 50 q 758 236 749 161 l 565 236 q 514 167 554 193 q 414 142 474 142 q 290 190 338 142 q 244 326 243 238 l 763 326 q 739 549 775 451 q 619 702 703 646 q 407 758 536 758 q 215 710 297 758 q 88 575 133 663 q 43 367 43 488 q 88 167 43 253 q 215 35 132 82 q 414 -12 297 -12 m 407 604 q 517 566 474 604 q 563 453 560 528 l 244 453 q 293 563 250 522 q 407 604 336 604 z "},"è":{"ha":808,"x_min":43,"x_max":775,"o":"m 414 -12 q 582 19 508 -12 q 702 106 656 50 q 758 236 749 161 l 565 236 q 514 167 554 193 q 414 142 474 142 q 290 190 338 142 q 244 326 243 238 l 763 326 q 739 549 775 451 q 619 702 703 646 q 407 758 536 758 q 215 710 297 758 q 88 575 133 663 q 43 367 43 488 q 88 167 43 253 q 215 35 132 82 q 414 -12 297 -12 m 407 604 q 517 566 474 604 q 563 453 560 528 l 244 453 q 293 563 250 522 q 407 604 336 604 z "},"f":{"ha":515,"x_min":18,"x_max":508,"o":"m 140 0 l 344 0 l 344 581 l 496 581 l 496 744 l 344 744 l 344 811 q 360 857 344 839 q 418 875 375 875 l 508 875 l 508 1013 l 358 1013 q 197 964 254 1013 q 140 824 140 915 l 140 744 l 18 744 l 18 581 l 140 581 l 140 0 z "},"g":{"ha":856,"x_min":43,"x_max":776,"o":"m 400 -246 q 597 -214 513 -246 q 729 -108 682 -182 q 776 89 776 -35 l 776 744 l 578 744 l 572 625 l 561 625 q 477 722 536 686 q 338 758 418 758 q 124 668 206 758 q 43 401 43 578 q 123 135 43 225 q 336 44 203 44 q 476 82 417 44 q 561 179 536 119 l 572 179 l 572 51 q 533 -63 572 -25 q 404 -101 494 -101 q 313 -79 349 -101 q 269 -19 276 -57 l 74 -19 q 167 -184 82 -122 q 400 -246 253 -246 m 411 201 q 295 251 339 201 q 251 401 251 300 q 295 552 251 503 q 413 601 339 601 q 499 579 464 601 q 551 522 533 557 q 571 447 569 486 l 572 358 q 529 250 569 299 q 411 201 489 201 z "},"h":{"ha":881,"x_min":88,"x_max":800,"o":"m 88 0 l 292 0 l 292 414 q 334 538 292 485 q 456 592 376 592 q 563 546 529 592 q 596 406 596 500 l 596 0 l 800 0 l 800 450 q 765 630 800 563 q 672 728 731 697 q 538 758 613 758 q 394 721 458 758 q 300 610 331 683 l 292 610 l 292 1013 l 88 1013 l 88 0 z "},"i":{"ha":379,"x_min":88,"x_max":292,"o":"m 88 840 l 292 840 l 292 1013 l 88 1013 l 88 840 m 88 0 l 292 0 l 292 744 l 88 744 l 88 0 z "},"ı":{"ha":379,"x_min":88,"x_max":292,"o":"m 88 0 l 292 0 l 292 744 l 88 744 l 88 0 z "},"í":{"ha":379,"x_min":88,"x_max":394,"o":"m 88 0 l 292 0 l 292 744 l 88 744 l 88 0 z "},"î":{"ha":379,"x_min":-64,"x_max":446,"o":"m 88 0 l 292 0 l 292 744 l 88 744 l 88 0 z "},"ï":{"ha":379,"x_min":-39,"x_max":421,"o":"m 88 0 l 292 0 l 292 744 l 88 744 l 88 0 z "},"ì":{"ha":379,"x_min":-14,"x_max":292,"o":"m 88 0 l 292 0 l 292 744 l 88 744 l 88 0 z "},"j":{"ha":360,"x_min":-65,"x_max":272,"o":"m 67 840 l 272 840 l 272 1013 l 67 1013 l 67 840 m -65 -236 l 50 -236 q 222 -177 171 -236 q 272 -17 272 -118 l 272 744 l 68 744 l 68 1 q 51 -61 68 -42 q -8 -81 33 -81 l -65 -81 l -65 -236 z "},"k":{"ha":868,"x_min":88,"x_max":833,"o":"m 88 0 l 294 0 l 294 213 l 397 314 l 442 236 l 593 0 l 833 0 l 542 450 l 828 744 l 576 744 l 356 507 l 294 436 l 294 1013 l 88 1013 l 88 0 z "},"l":{"ha":379,"x_min":88,"x_max":292,"o":"m 88 0 l 292 0 l 292 1013 l 88 1013 l 88 0 z "},"m":{"ha":1356,"x_min":88,"x_max":1275,"o":"m 88 0 l 292 0 l 292 414 q 332 538 292 485 q 447 592 372 592 q 548 546 517 592 q 579 406 579 500 l 579 0 l 783 0 l 783 414 q 824 538 783 485 q 939 592 865 592 q 1040 546 1008 592 q 1071 406 1071 500 l 1071 0 l 1275 0 l 1275 450 q 1241 630 1275 563 q 1150 728 1207 697 q 1021 758 1093 758 q 869 717 936 758 q 775 592 801 675 l 764 592 q 669 721 733 683 q 528 758 606 758 q 390 721 453 758 q 300 610 328 683 l 292 610 l 285 744 l 88 744 l 88 0 z "},"n":{"ha":881,"x_min":88,"x_max":800,"o":"m 88 0 l 292 0 l 292 414 q 334 538 292 485 q 456 592 376 592 q 563 546 529 592 q 596 406 596 500 l 596 0 l 800 0 l 800 450 q 765 630 800 563 q 672 728 731 697 q 538 758 613 758 q 394 721 458 758 q 300 610 331 683 l 292 610 l 283 744 l 88 744 l 88 0 z "},"ñ":{"ha":881,"x_min":88,"x_max":800,"o":"m 88 0 l 292 0 l 292 414 q 334 538 292 485 q 456 592 376 592 q 563 546 529 592 q 596 406 596 500 l 596 0 l 800 0 l 800 450 q 765 630 800 563 q 672 728 731 697 q 538 758 613 758 q 394 721 458 758 q 300 610 331 683 l 292 610 l 283 744 l 88 744 l 88 0 m 529 836 q 624 868 578 835 q 697 978 669 901 l 615 1029 q 587 997 606 1015 q 532 978 568 978 q 474 991 500 979 q 423 1015 449 1003 q 360 1026 397 1026 q 271 999 317 1028 q 192 890 225 971 l 272 836 q 310 872 290 857 q 358 886 329 886 q 415 874 390 886 q 465 849 439 861 q 529 836 492 838 z "},"o":{"ha":832,"x_min":43,"x_max":789,"o":"m 417 -12 q 617 35 535 -12 q 744 170 700 83 q 789 372 789 257 q 742 580 789 493 q 612 713 696 667 q 417 758 528 758 q 215 710 299 758 q 88 574 132 661 q 43 372 43 488 q 90 165 43 251 q 221 33 136 79 q 417 -12 306 -12 m 415 153 q 294 208 339 153 q 249 372 249 263 q 294 538 249 483 q 417 592 340 592 q 538 538 493 592 q 582 372 582 483 q 536 207 582 261 q 415 153 490 153 z "},"ó":{"ha":832,"x_min":43,"x_max":789,"o":"m 417 -12 q 617 35 535 -12 q 744 170 700 83 q 789 372 789 257 q 742 580 789 493 q 612 713 696 667 q 417 758 528 758 q 215 710 299 758 q 88 574 132 661 q 43 372 43 488 q 90 165 43 251 q 221 33 136 79 q 417 -12 306 -12 m 415 153 q 294 208 339 153 q 249 372 249 263 q 294 538 249 483 q 417 592 340 592 q 538 538 493 592 q 582 372 582 483 q 536 207 582 261 q 415 153 490 153 z "},"ô":{"ha":832,"x_min":43,"x_max":789,"o":"m 417 -12 q 617 35 535 -12 q 744 170 700 83 q 789 372 789 257 q 742 580 789 493 q 612 713 696 667 q 417 758 528 758 q 215 710 299 758 q 88 574 132 661 q 43 372 43 488 q 90 165 43 251 q 221 33 136 79 q 417 -12 306 -12 m 415 153 q 294 208 339 153 q 249 372 249 263 q 294 538 249 483 q 417 592 340 592 q 538 538 493 592 q 582 372 582 483 q 536 207 582 261 q 415 153 490 153 z "},"ö":{"ha":832,"x_min":43,"x_max":789,"o":"m 417 -12 q 617 35 535 -12 q 744 170 700 83 q 789 372 789 257 q 742 580 789 493 q 612 713 696 667 q 417 758 528 758 q 215 710 299 758 q 88 574 132 661 q 43 372 43 488 q 90 165 43 251 q 221 33 136 79 q 417 -12 306 -12 m 415 153 q 294 208 339 153 q 249 372 249 263 q 294 538 249 483 q 417 592 340 592 q 538 538 493 592 q 582 372 582 483 q 536 207 582 261 q 415 153 490 153 z "},"ò":{"ha":832,"x_min":43,"x_max":789,"o":"m 417 -12 q 617 35 535 -12 q 744 170 700 83 q 789 372 789 257 q 742 580 789 493 q 612 713 696 667 q 417 758 528 758 q 215 710 299 758 q 88 574 132 661 q 43 372 43 488 q 90 165 43 251 q 221 33 136 79 q 417 -12 306 -12 m 415 153 q 294 208 339 153 q 249 372 249 263 q 294 538 249 483 q 417 592 340 592 q 538 538 493 592 q 582 372 582 483 q 536 207 582 261 q 415 153 490 153 z "},"ø":{"ha":832,"x_min":17,"x_max":814,"o":"m 417 -12 q 617 35 535 -12 q 744 170 700 83 q 789 372 789 257 q 742 580 789 493 q 612 713 696 667 q 417 758 528 758 q 215 710 299 758 q 88 574 132 661 q 43 372 43 488 q 90 165 43 251 q 221 33 136 79 q 417 -12 306 -12 m 415 153 q 294 208 339 153 q 249 372 249 263 q 294 538 249 483 q 417 592 340 592 q 538 538 493 592 q 582 372 582 483 q 536 207 582 261 q 415 153 490 153 m 17 -83 l 143 -83 l 814 828 l 689 828 l 17 -83 z "},"õ":{"ha":832,"x_min":43,"x_max":789,"o":"m 417 -12 q 617 35 535 -12 q 744 170 700 83 q 789 372 789 257 q 742 580 789 493 q 612 713 696 667 q 417 758 528 758 q 215 710 299 758 q 88 574 132 661 q 43 372 43 488 q 90 165 43 251 q 221 33 136 79 q 417 -12 306 -12 m 415 153 q 294 208 339 153 q 249 372 249 263 q 294 538 249 483 q 417 592 340 592 q 538 538 493 592 q 582 372 582 483 q 536 207 582 261 q 415 153 490 153 z "},"œ":{"ha":1354,"x_min":43,"x_max":1319,"o":"m 417 -12 q 617 35 535 -12 q 744 170 700 83 q 789 372 789 257 q 742 580 789 493 q 612 713 696 667 q 417 758 528 758 q 215 710 299 758 q 88 574 132 661 q 43 372 43 488 q 90 165 43 251 q 221 33 136 79 q 417 -12 306 -12 m 415 153 q 294 208 339 153 q 249 372 249 263 q 294 538 249 483 q 417 592 340 592 q 538 538 493 592 q 582 372 582 483 q 536 207 582 261 q 415 153 490 153 m 958 -12 q 1126 19 1053 -12 q 1247 106 1200 50 q 1303 236 1293 161 l 1110 236 q 1058 167 1099 193 q 958 142 1018 142 q 835 190 882 142 q 789 326 788 238 l 1307 326 q 1283 549 1319 451 q 1164 702 1247 646 q 951 758 1081 758 q 760 710 842 758 q 633 575 678 663 q 588 367 588 488 q 632 167 588 253 q 759 35 676 82 q 958 -12 842 -12 m 951 604 q 1061 566 1018 604 q 1107 453 1104 528 l 789 453 q 838 563 794 522 q 951 604 881 604 z "},"p":{"ha":879,"x_min":88,"x_max":838,"o":"m 88 -232 l 292 -232 l 292 129 l 303 129 q 391 26 329 65 q 539 -14 453 -14 q 755 83 672 -14 q 838 372 838 181 q 755 662 838 565 q 539 758 672 758 q 391 719 453 758 q 303 615 329 681 l 292 615 l 285 744 l 88 744 l 88 -232 m 463 151 q 368 178 406 151 q 313 247 331 204 q 294 336 294 289 l 294 408 q 313 498 294 456 q 368 567 331 540 q 463 593 406 593 q 583 540 538 593 q 628 372 628 486 q 583 205 628 258 q 463 151 538 151 z "},"þ":{"ha":879,"x_min":88,"x_max":836,"o":"m 88 -232 l 292 -232 l 292 129 l 303 129 q 391 26 329 65 q 539 -14 453 -14 q 754 83 672 -14 q 836 372 836 181 q 754 662 836 565 q 539 758 672 758 q 391 719 453 758 q 303 615 329 681 l 292 615 l 292 1013 l 88 1013 l 88 -232 m 461 151 q 367 178 404 151 q 311 247 329 204 q 293 336 293 289 l 293 408 q 311 498 293 456 q 367 567 329 540 q 461 593 404 593 q 582 540 536 593 q 628 372 628 486 q 582 205 628 258 q 461 151 536 151 z "},"q":{"ha":879,"x_min":43,"x_max":792,"o":"m 588 -232 l 792 -232 l 792 744 l 596 744 l 588 615 l 576 615 q 488 719 550 681 q 340 758 426 758 q 125 662 207 758 q 43 372 43 565 q 125 84 43 181 q 340 -12 207 -12 q 488 27 426 -12 q 576 131 550 67 l 588 131 l 588 -232 m 418 153 q 297 206 343 153 q 251 372 251 260 q 297 540 251 486 q 418 593 343 593 q 512 567 475 593 q 567 499 549 540 q 585 408 585 457 l 585 338 q 567 248 585 290 q 512 179 549 206 q 418 153 475 153 z "},"r":{"ha":554,"x_min":88,"x_max":535,"o":"m 88 0 l 292 0 l 292 389 q 340 517 294 472 q 489 563 386 563 l 535 563 l 535 754 l 493 754 q 367 726 422 754 q 288 625 313 697 l 281 625 l 272 744 l 88 744 l 88 0 z "},"s":{"ha":774,"x_min":47,"x_max":724,"o":"m 386 -14 q 633 44 543 -14 q 724 224 724 101 q 699 334 724 292 q 634 401 675 376 q 540 437 593 425 q 429 457 488 449 q 310 485 347 468 q 272 543 272 501 q 301 599 272 578 q 388 621 331 621 q 476 596 443 621 q 508 524 508 571 l 708 524 q 621 697 706 635 q 393 758 536 758 q 158 699 247 758 q 68 522 68 640 q 108 396 68 440 q 215 330 147 351 q 365 297 283 308 q 481 271 444 286 q 518 204 518 256 q 486 145 518 167 q 392 124 454 124 q 291 149 332 124 q 249 235 250 175 l 49 235 q 135 55 47 124 q 386 -14 224 -14 z "},"ß":{"ha":936,"x_min":10,"x_max":892,"o":"m 149 -232 l 353 -232 l 353 0 l 536 0 q 803 83 714 0 q 892 299 892 165 q 834 469 892 403 q 692 546 776 535 l 692 556 q 789 632 754 576 q 824 758 824 688 q 737 952 824 878 q 501 1026 650 1026 q 340 998 414 1026 q 217 907 267 969 q 154 744 168 844 l 10 744 l 10 582 l 149 582 l 149 -232 m 500 847 q 601 812 565 847 q 636 721 636 776 q 599 630 636 665 q 493 594 561 594 l 458 594 l 458 464 l 526 464 q 643 428 603 464 q 683 321 683 392 q 640 203 683 242 q 514 164 596 164 l 353 164 l 353 693 q 392 807 353 767 q 500 847 432 847 z "},"t":{"ha":535,"x_min":10,"x_max":496,"o":"m 333 0 l 496 0 l 496 165 l 406 165 q 361 176 376 165 q 346 221 346 188 l 346 581 l 496 581 l 496 744 l 346 744 l 346 967 l 143 947 l 143 744 l 10 744 l 10 581 l 143 581 l 143 182 q 159 85 143 126 q 217 22 175 44 q 333 0 258 0 z "},"u":{"ha":874,"x_min":81,"x_max":793,"o":"m 346 -12 q 490 26 426 -12 q 579 136 553 64 l 589 136 l 597 0 l 793 0 l 793 744 l 589 744 l 589 333 q 547 206 589 260 q 426 153 504 153 q 317 199 350 153 q 285 335 285 246 l 285 744 l 81 744 l 81 281 q 149 63 81 138 q 346 -12 217 -12 z "},"ú":{"ha":874,"x_min":81,"x_max":793,"o":"m 346 -12 q 490 26 426 -12 q 579 136 553 64 l 589 136 l 597 0 l 793 0 l 793 744 l 589 744 l 589 333 q 547 206 589 260 q 426 153 504 153 q 317 199 350 153 q 285 335 285 246 l 285 744 l 81 744 l 81 281 q 149 63 81 138 q 346 -12 217 -12 z "},"û":{"ha":874,"x_min":81,"x_max":793,"o":"m 346 -12 q 490 26 426 -12 q 579 136 553 64 l 589 136 l 597 0 l 793 0 l 793 744 l 589 744 l 589 333 q 547 206 589 260 q 426 153 504 153 q 317 199 350 153 q 285 335 285 246 l 285 744 l 81 744 l 81 281 q 149 63 81 138 q 346 -12 217 -12 z "},"ü":{"ha":874,"x_min":81,"x_max":793,"o":"m 346 -12 q 490 26 426 -12 q 579 136 553 64 l 589 136 l 597 0 l 793 0 l 793 744 l 589 744 l 589 333 q 547 206 589 260 q 426 153 504 153 q 317 199 350 153 q 285 335 285 246 l 285 744 l 81 744 l 81 281 q 149 63 81 138 q 346 -12 217 -12 z "},"ù":{"ha":874,"x_min":81,"x_max":793,"o":"m 346 -12 q 490 26 426 -12 q 579 136 553 64 l 589 136 l 597 0 l 793 0 l 793 744 l 589 744 l 589 333 q 547 206 589 260 q 426 153 504 153 q 317 199 350 153 q 285 335 285 246 l 285 744 l 81 744 l 81 281 q 149 63 81 138 q 346 -12 217 -12 z "},"v":{"ha":758,"x_min":-1,"x_max":760,"o":"m 253 0 l 507 0 l 760 746 l 539 746 l 426 346 l 382 169 l 375 169 l 331 347 l 218 746 l -1 746 l 253 0 z "},"w":{"ha":1107,"x_min":7,"x_max":1100,"o":"m 185 0 l 447 0 l 546 485 l 553 485 l 654 0 l 921 0 l 1100 744 l 897 744 l 781 201 l 775 201 l 669 744 l 447 744 l 342 204 l 333 204 l 218 744 l 7 744 l 185 0 z "},"ẃ":{"ha":1107,"x_min":7,"x_max":1100,"o":"m 185 0 l 447 0 l 546 485 l 553 485 l 654 0 l 921 0 l 1100 744 l 897 744 l 781 201 l 775 201 l 669 744 l 447 744 l 342 204 l 333 204 l 218 744 l 7 744 l 185 0 z "},"ŵ":{"ha":1107,"x_min":7,"x_max":1100,"o":"m 185 0 l 447 0 l 546 485 l 553 485 l 654 0 l 921 0 l 1100 744 l 897 744 l 781 201 l 775 201 l 669 744 l 447 744 l 342 204 l 333 204 l 218 744 l 7 744 l 185 0 z "},"ẅ":{"ha":1107,"x_min":7,"x_max":1100,"o":"m 185 0 l 447 0 l 546 485 l 553 485 l 654 0 l 921 0 l 1100 744 l 897 744 l 781 201 l 775 201 l 669 744 l 447 744 l 342 204 l 333 204 l 218 744 l 7 744 l 185 0 z "},"ẁ":{"ha":1107,"x_min":7,"x_max":1100,"o":"m 185 0 l 447 0 l 546 485 l 553 485 l 654 0 l 921 0 l 1100 744 l 897 744 l 781 201 l 775 201 l 669 744 l 447 744 l 342 204 l 333 204 l 218 744 l 7 744 l 185 0 z "},"x":{"ha":819,"x_min":-6,"x_max":825,"o":"m -6 0 l 224 0 l 404 253 l 413 253 l 585 0 l 825 0 l 551 388 l 799 744 l 567 744 l 419 521 l 411 521 l 263 744 l 19 744 l 274 382 l -6 0 z "},"y":{"ha":754,"x_min":-1,"x_max":757,"o":"m 65 -232 l 190 -232 q 355 -192 286 -232 q 467 -35 424 -151 l 757 744 l 539 744 l 411 346 l 389 267 l 382 267 l 358 346 l 222 744 l -1 744 l 283 58 l 265 13 q 224 -45 251 -26 q 151 -64 197 -64 l 65 -64 l 65 -232 z "},"ý":{"ha":754,"x_min":-1,"x_max":757,"o":"m 65 -232 l 190 -232 q 355 -192 286 -232 q 467 -35 424 -151 l 757 744 l 539 744 l 411 346 l 389 267 l 382 267 l 358 346 l 222 744 l -1 744 l 283 58 l 265 13 q 224 -45 251 -26 q 151 -64 197 -64 l 65 -64 l 65 -232 z "},"ŷ":{"ha":754,"x_min":-1,"x_max":757,"o":"m 65 -232 l 190 -232 q 355 -192 286 -232 q 467 -35 424 -151 l 757 744 l 539 744 l 411 346 l 389 267 l 382 267 l 358 346 l 222 744 l -1 744 l 283 58 l 265 13 q 224 -45 251 -26 q 151 -64 197 -64 l 65 -64 l 65 -232 z "},"ÿ":{"ha":754,"x_min":-1,"x_max":757,"o":"m 65 -232 l 190 -232 q 355 -192 286 -232 q 467 -35 424 -151 l 757 744 l 539 744 l 411 346 l 389 267 l 382 267 l 358 346 l 222 744 l -1 744 l 283 58 l 265 13 q 224 -45 251 -26 q 151 -64 197 -64 l 65 -64 l 65 -232 z "},"ỳ":{"ha":754,"x_min":-1,"x_max":757,"o":"m 65 -232 l 190 -232 q 355 -192 286 -232 q 467 -35 424 -151 l 757 744 l 539 744 l 411 346 l 389 267 l 382 267 l 358 346 l 222 744 l -1 744 l 283 58 l 265 13 q 224 -45 251 -26 q 151 -64 197 -64 l 65 -64 l 65 -232 z "},"z":{"ha":735,"x_min":40,"x_max":696,"o":"m 40 0 l 696 0 l 696 164 l 300 164 l 681 601 l 681 744 l 63 744 l 63 581 l 419 581 l 40 146 l 40 0 z "},"ﬂ":{"ha":893,"x_min":14,"x_max":806,"o":"m 136 0 l 340 0 l 340 581 l 601 581 l 601 0 l 806 0 l 806 1013 l 601 1013 l 601 744 l 340 744 l 340 814 q 355 859 340 842 q 413 876 369 876 l 504 876 l 504 1013 l 353 1013 q 193 964 250 1013 q 136 824 136 915 l 136 744 l 14 744 l 14 581 l 136 581 l 136 0 z "},"ª":{"ha":575,"x_min":26,"x_max":521,"o":"m 219 521 q 316 546 276 521 q 372 613 356 571 l 379 613 l 379 529 l 521 529 l 521 1014 l 385 1014 l 379 932 l 372 932 q 316 999 356 974 q 219 1024 276 1024 q 80 960 133 1024 q 26 772 26 897 q 80 583 26 646 q 219 521 133 521 m 275 633 q 199 667 228 633 q 171 772 171 701 q 199 877 171 843 q 275 911 228 911 q 353 875 328 911 q 378 794 378 839 l 378 749 q 353 669 378 706 q 275 633 328 633 z "},"º":{"ha":542,"x_min":26,"x_max":515,"o":"m 271 521 q 451 590 386 521 q 515 772 515 660 q 448 957 515 890 q 271 1024 381 1024 q 91 953 156 1024 q 26 771 26 883 q 94 587 26 653 q 271 521 161 521 m 271 633 q 197 668 225 633 q 169 771 169 703 q 197 876 169 842 q 271 910 225 910 q 346 876 318 910 q 374 772 374 842 q 345 667 374 701 q 271 633 317 633 z "},"μ":{"ha":874,"x_min":81,"x_max":793,"o":"m 81 -183 l 285 -183 l 285 -6 q 347 -12 314 -12 q 489 24 426 -12 q 579 136 551 61 l 589 136 l 597 0 l 793 0 l 793 744 l 589 744 l 589 333 q 550 203 589 253 q 428 153 511 153 q 322 190 360 153 q 285 299 285 228 l 285 744 l 81 744 l 81 -183 z "},"π":{"ha":853,"x_min":13,"x_max":829,"o":"m 721 -8 q 775 -3 744 -8 q 828 8 806 3 l 828 146 q 786 139 807 139 q 718 221 718 139 l 718 578 l 829 578 l 829 744 l 13 744 l 13 578 l 125 578 l 125 0 l 324 0 l 324 578 l 518 578 l 518 200 q 534 97 518 144 q 594 20 550 49 q 721 -8 639 -8 z "},"➀":{"ha":1207,"x_min":64,"x_max":1143,"o":"m 603 -12 q 883 53 761 -12 q 1074 235 1006 118 q 1143 506 1143 351 q 1074 778 1143 661 q 883 960 1006 894 q 603 1025 761 1025 q 324 960 446 1025 q 133 778 201 894 q 64 506 64 661 q 133 235 64 351 q 324 53 201 118 q 603 -12 446 -12 m 603 69 q 368 124 469 69 q 210 277 267 179 q 154 506 154 375 q 210 735 154 638 q 368 888 267 833 q 603 943 469 943 q 839 888 738 943 q 997 735 940 833 q 1053 506 1053 638 q 997 277 1053 375 q 839 124 940 179 q 603 69 738 69 m 586 231 l 699 231 l 699 782 l 593 782 q 559 714 589 742 q 476 686 529 686 l 456 686 l 456 601 l 586 601 l 586 231 z "},"➁":{"ha":1207,"x_min":64,"x_max":1143,"o":"m 603 -12 q 883 53 761 -12 q 1074 235 1006 118 q 1143 506 1143 351 q 1074 778 1143 661 q 883 960 1006 894 q 603 1025 761 1025 q 324 960 446 1025 q 133 778 201 894 q 64 506 64 661 q 133 235 64 351 q 324 53 201 118 q 603 -12 446 -12 m 603 69 q 368 124 469 69 q 210 277 267 179 q 154 506 154 375 q 210 735 154 638 q 368 888 267 833 q 603 943 469 943 q 839 888 738 943 q 997 735 940 833 q 1053 506 1053 638 q 997 277 1053 375 q 839 124 940 179 q 603 69 738 69 m 421 226 l 788 226 l 788 325 l 663 325 q 564 321 610 325 q 619 387 583 357 q 694 447 656 417 q 758 519 732 478 q 785 619 785 560 q 735 741 785 697 q 607 785 686 785 q 472 735 524 785 q 422 599 419 685 l 535 599 q 549 663 532 638 q 601 688 567 688 q 649 667 631 688 q 668 614 668 647 q 643 551 668 578 q 581 497 618 524 q 508 437 544 469 q 446 357 471 404 q 421 242 421 310 l 421 226 z "},"➂":{"ha":1207,"x_min":64,"x_max":1143,"o":"m 603 -12 q 883 53 761 -12 q 1074 235 1006 118 q 1143 506 1143 351 q 1074 778 1143 661 q 883 960 1006 894 q 603 1025 761 1025 q 324 960 446 1025 q 133 778 201 894 q 64 506 64 661 q 133 235 64 351 q 324 53 201 118 q 603 -12 446 -12 m 603 69 q 368 124 469 69 q 210 277 267 179 q 154 506 154 375 q 210 735 154 638 q 368 888 267 833 q 603 943 469 943 q 839 888 738 943 q 997 735 940 833 q 1053 506 1053 638 q 997 277 1053 375 q 839 124 940 179 q 603 69 738 69 m 603 224 q 742 269 688 224 q 796 389 796 315 q 776 467 796 433 q 717 514 757 501 l 717 518 q 769 565 749 532 q 789 640 789 597 q 738 749 789 710 q 608 789 686 789 q 472 742 524 789 q 417 614 419 694 l 529 614 q 549 670 529 647 q 604 693 569 693 q 653 675 633 693 q 672 625 672 657 q 654 575 672 594 q 604 556 636 556 l 547 556 l 547 469 l 614 469 q 661 451 642 469 q 681 399 681 433 q 659 342 681 364 q 603 321 638 321 q 547 342 569 321 q 525 401 525 364 l 414 401 q 466 272 415 321 q 603 224 517 224 z "},"➃":{"ha":1207,"x_min":64,"x_max":1143,"o":"m 64 506 q 133 235 64 351 q 324 53 201 118 q 603 -12 446 -12 q 883 53 761 -12 q 1074 235 1006 118 q 1143 506 1143 351 q 1074 778 1143 661 q 883 960 1006 894 q 603 1025 761 1025 q 324 960 446 1025 q 133 778 201 894 q 64 506 64 661 m 154 506 q 210 735 154 638 q 368 888 267 833 q 603 943 469 943 q 839 888 738 943 q 997 735 940 833 q 1053 506 1053 638 q 997 277 1053 375 q 839 124 940 179 q 603 69 738 69 q 368 124 469 69 q 210 277 267 179 q 154 506 154 375 m 379 357 l 615 357 l 617 231 l 729 231 l 729 357 l 794 357 l 794 450 l 729 450 l 729 782 l 592 782 l 379 442 l 379 357 m 489 450 l 617 650 l 617 450 l 489 450 z "},"➄":{"ha":1207,"x_min":64,"x_max":1143,"o":"m 603 -12 q 883 53 761 -12 q 1074 235 1006 118 q 1143 506 1143 351 q 1074 778 1143 661 q 883 960 1006 894 q 603 1025 761 1025 q 324 960 446 1025 q 133 778 201 894 q 64 506 64 661 q 133 235 64 351 q 324 53 201 118 q 603 -12 446 -12 m 603 69 q 368 124 469 69 q 210 277 267 179 q 154 506 154 375 q 210 735 154 638 q 368 888 267 833 q 603 943 469 943 q 839 888 738 943 q 997 735 940 833 q 1053 506 1053 638 q 997 277 1053 375 q 839 124 940 179 q 603 69 738 69 m 603 226 q 744 281 692 226 q 796 421 796 335 q 750 553 796 500 q 626 606 704 606 q 576 596 600 606 q 538 571 551 586 l 532 572 l 536 688 l 760 688 l 760 785 l 436 785 l 424 458 l 531 458 q 603 513 546 513 q 660 485 639 513 q 682 417 682 457 q 660 351 682 378 q 604 325 639 325 q 549 347 569 325 q 528 401 529 369 l 413 401 q 467 274 415 322 q 603 226 518 226 z "},"➅":{"ha":1207,"x_min":64,"x_max":1143,"o":"m 603 -12 q 883 53 761 -12 q 1074 235 1006 118 q 1143 506 1143 351 q 1074 778 1143 661 q 883 960 1006 894 q 603 1025 761 1025 q 324 960 446 1025 q 133 778 201 894 q 64 506 64 661 q 133 235 64 351 q 324 53 201 118 q 603 -12 446 -12 m 603 69 q 368 124 469 69 q 210 277 267 179 q 154 506 154 375 q 210 735 154 638 q 368 888 267 833 q 603 943 469 943 q 839 888 738 943 q 997 735 940 833 q 1053 506 1053 638 q 997 277 1053 375 q 839 124 940 179 q 603 69 738 69 m 611 224 q 746 272 693 224 q 799 417 799 321 q 758 547 799 497 q 639 596 718 596 q 572 579 601 596 q 529 532 543 563 l 525 532 q 545 649 524 606 q 614 692 567 692 q 659 678 639 692 q 685 638 679 664 l 794 638 q 740 748 788 707 q 614 789 692 789 q 463 715 517 789 q 410 494 410 642 q 463 290 410 357 q 611 224 517 224 m 611 321 q 556 347 576 321 q 535 415 535 372 q 556 485 535 458 q 611 513 576 513 q 665 486 644 513 q 686 417 686 460 q 665 347 686 374 q 611 321 644 321 z "},"➆":{"ha":1207,"x_min":64,"x_max":1143,"o":"m 603 -12 q 883 53 761 -12 q 1074 235 1006 118 q 1143 506 1143 351 q 1074 778 1143 661 q 883 960 1006 894 q 603 1025 761 1025 q 324 960 446 1025 q 133 778 201 894 q 64 506 64 661 q 133 235 64 351 q 324 53 201 118 q 603 -12 446 -12 m 603 69 q 368 124 469 69 q 210 277 267 179 q 154 506 154 375 q 210 735 154 638 q 368 888 267 833 q 603 943 469 943 q 839 888 738 943 q 997 735 940 833 q 1053 506 1053 638 q 997 277 1053 375 q 839 124 940 179 q 603 69 738 69 m 526 231 l 649 231 q 667 419 649 339 q 717 565 685 499 q 794 700 750 632 l 794 782 l 414 782 l 414 589 l 506 589 l 506 685 l 661 685 q 566 490 606 599 q 526 231 526 381 z "},"➇":{"ha":1207,"x_min":64,"x_max":1143,"o":"m 603 -12 q 883 53 761 -12 q 1074 235 1006 118 q 1143 506 1143 351 q 1074 778 1143 661 q 883 960 1006 894 q 603 1025 761 1025 q 324 960 446 1025 q 133 778 201 894 q 64 506 64 661 q 133 235 64 351 q 324 53 201 118 q 603 -12 446 -12 m 603 69 q 368 124 469 69 q 210 277 267 179 q 154 506 154 375 q 210 735 154 638 q 368 888 267 833 q 603 943 469 943 q 839 888 738 943 q 997 735 940 833 q 1053 506 1053 638 q 997 277 1053 375 q 839 124 940 179 q 603 69 738 69 m 606 225 q 744 267 692 225 q 797 379 797 308 q 775 461 797 424 q 708 507 753 499 l 708 513 q 769 558 749 524 q 789 635 789 592 q 740 745 789 703 q 606 788 692 788 q 468 744 517 788 q 419 636 419 701 q 440 558 419 593 q 501 513 461 524 l 501 507 q 435 464 461 500 q 410 379 410 428 q 464 266 410 307 q 606 225 518 225 m 606 551 q 553 571 571 551 q 535 622 535 590 q 553 674 535 654 q 606 693 572 693 q 656 674 638 693 q 675 622 675 656 q 657 572 675 592 q 606 551 639 551 m 606 321 q 531 393 531 321 q 549 444 531 425 q 606 464 568 464 q 660 444 642 464 q 679 393 679 425 q 659 340 679 358 q 606 321 639 321 z "},"➈":{"ha":1207,"x_min":64,"x_max":1143,"o":"m 603 -12 q 883 53 761 -12 q 1074 235 1006 118 q 1143 506 1143 351 q 1074 778 1143 661 q 883 960 1006 894 q 603 1025 761 1025 q 324 960 446 1025 q 133 778 201 894 q 64 506 64 661 q 133 235 64 351 q 324 53 201 118 q 603 -12 446 -12 m 603 69 q 368 124 469 69 q 210 277 267 179 q 154 506 154 375 q 210 735 154 638 q 368 888 267 833 q 603 943 469 943 q 839 888 738 943 q 997 735 940 833 q 1053 506 1053 638 q 997 277 1053 375 q 839 124 940 179 q 603 69 738 69 m 596 224 q 744 291 689 224 q 799 518 799 358 q 745 723 799 657 q 599 789 692 789 q 462 740 514 789 q 410 597 410 692 q 451 467 410 517 q 571 418 493 418 q 642 437 615 418 q 678 481 668 456 l 683 481 q 664 364 685 407 q 596 321 643 321 q 547 338 565 321 q 526 375 529 354 l 417 375 q 473 263 424 303 q 596 224 522 224 m 599 503 q 543 528 564 503 q 522 597 522 554 q 543 665 522 639 q 599 690 564 690 q 653 665 633 690 q 674 597 674 640 q 655 529 674 556 q 599 503 636 503 z "},"❶":{"ha":1211,"x_min":64,"x_max":1149,"o":"m 606 -12 q 888 53 765 -12 q 1079 235 1010 118 q 1149 506 1149 351 q 1079 778 1149 661 q 888 960 1010 894 q 606 1025 765 1025 q 325 960 447 1025 q 133 778 203 894 q 64 506 64 661 q 133 235 64 351 q 324 53 201 118 q 606 -12 446 -12 m 589 231 l 589 601 l 457 601 l 457 686 l 478 686 q 561 714 532 686 q 594 782 590 742 l 700 782 l 700 231 l 589 231 z "},"❷":{"ha":1211,"x_min":64,"x_max":1149,"o":"m 606 -12 q 888 53 765 -12 q 1079 235 1010 118 q 1149 506 1149 351 q 1079 778 1149 661 q 888 960 1010 894 q 606 1025 765 1025 q 325 960 447 1025 q 133 778 203 894 q 64 506 64 661 q 133 235 64 351 q 324 53 201 118 q 606 -12 446 -12 m 424 226 l 424 242 q 449 358 424 311 q 510 437 474 404 q 584 497 547 469 q 646 551 621 524 q 671 614 671 578 q 652 667 671 647 q 604 688 633 688 q 552 663 569 688 q 538 599 535 638 l 426 599 q 475 735 424 685 q 610 785 526 785 q 738 741 689 785 q 788 619 788 697 q 761 519 788 560 q 697 447 735 478 q 622 387 658 417 q 567 321 586 357 q 665 325 613 325 l 790 325 l 790 226 l 424 226 z "},"❸":{"ha":1211,"x_min":64,"x_max":1149,"o":"m 606 -12 q 888 53 765 -12 q 1079 235 1010 118 q 1149 506 1149 351 q 1079 778 1149 661 q 888 960 1010 894 q 606 1025 765 1025 q 325 960 447 1025 q 133 778 203 894 q 64 506 64 661 q 133 235 64 351 q 324 53 201 118 q 606 -12 446 -12 m 606 224 q 469 272 519 224 q 415 401 418 321 l 526 401 q 549 342 526 364 q 604 321 571 321 q 661 342 640 321 q 682 399 682 364 q 663 451 682 433 q 615 469 643 469 l 550 469 l 550 556 l 606 556 q 657 575 639 556 q 675 625 675 594 q 656 675 675 657 q 606 693 636 693 q 551 670 571 693 q 531 614 532 647 l 419 614 q 474 742 421 694 q 611 789 526 789 q 740 749 689 789 q 790 640 790 710 q 770 565 790 597 q 718 518 750 532 l 718 514 q 778 467 758 501 q 797 389 797 433 q 743 269 797 315 q 606 224 689 224 z "},"❹":{"ha":1211,"x_min":64,"x_max":1149,"o":"m 64 506 q 133 235 64 351 q 324 53 201 118 q 606 -12 446 -12 q 888 53 765 -12 q 1079 235 1010 118 q 1149 506 1149 351 q 1079 778 1149 661 q 888 960 1010 894 q 606 1025 765 1025 q 325 960 447 1025 q 133 778 203 894 q 64 506 64 661 m 397 357 l 397 442 l 610 782 l 749 782 l 749 450 l 814 450 l 813 357 l 749 357 l 749 231 l 635 231 l 635 357 l 397 357 m 507 450 l 635 450 l 635 650 l 507 450 z "},"❺":{"ha":1211,"x_min":64,"x_max":1149,"o":"m 606 -12 q 888 53 765 -12 q 1079 235 1010 118 q 1149 506 1149 351 q 1079 778 1149 661 q 888 960 1010 894 q 606 1025 765 1025 q 325 960 447 1025 q 133 778 203 894 q 64 506 64 661 q 133 235 64 351 q 324 53 201 118 q 606 -12 446 -12 m 604 226 q 469 274 521 226 q 415 401 418 322 l 529 401 q 552 347 532 369 q 606 325 572 325 q 663 351 642 325 q 685 417 685 378 q 663 485 685 457 q 604 513 640 513 q 532 458 547 513 l 425 458 l 439 785 l 761 785 l 761 688 l 538 688 l 535 572 l 539 571 q 577 596 553 586 q 629 606 601 606 q 752 553 707 606 q 797 421 797 500 q 745 281 797 335 q 604 226 693 226 z "},"❻":{"ha":1211,"x_min":64,"x_max":1149,"o":"m 606 -12 q 888 53 765 -12 q 1079 235 1010 118 q 1149 506 1149 351 q 1079 778 1149 661 q 888 960 1010 894 q 606 1025 765 1025 q 325 960 447 1025 q 133 778 203 894 q 64 506 64 661 q 133 235 64 351 q 324 53 201 118 q 606 -12 446 -12 m 614 224 q 467 290 521 224 q 413 494 413 357 q 466 715 413 642 q 617 789 519 789 q 742 748 694 789 q 797 638 790 707 l 688 638 q 662 678 682 664 q 617 692 642 692 q 548 649 569 692 q 528 532 526 606 l 533 532 q 575 579 546 563 q 642 596 604 596 q 761 547 721 596 q 801 417 801 497 q 749 272 801 321 q 614 224 696 224 m 614 321 q 668 347 647 321 q 689 417 689 374 q 669 486 689 460 q 614 513 649 513 q 558 485 579 513 q 538 415 538 458 q 558 347 538 372 q 614 321 579 321 z "},"❼":{"ha":1211,"x_min":64,"x_max":1149,"o":"m 606 -12 q 888 53 765 -12 q 1079 235 1010 118 q 1149 506 1149 351 q 1079 778 1149 661 q 888 960 1010 894 q 606 1025 765 1025 q 325 960 447 1025 q 133 778 203 894 q 64 506 64 661 q 133 235 64 351 q 324 53 201 118 q 606 -12 446 -12 m 528 231 q 568 490 528 381 q 663 685 608 599 l 507 685 l 507 589 l 417 589 l 417 782 l 796 782 l 796 700 q 719 565 751 632 q 668 419 686 499 q 650 231 650 339 l 528 231 z "},"❽":{"ha":1211,"x_min":64,"x_max":1149,"o":"m 64 506 q 133 235 64 351 q 324 53 201 118 q 606 -12 446 -12 q 888 53 765 -12 q 1079 235 1010 118 q 1149 506 1149 351 q 1079 778 1149 661 q 888 960 1010 894 q 606 1025 765 1025 q 325 960 447 1025 q 133 778 203 894 q 64 506 64 661 m 413 379 q 438 464 413 428 q 504 507 464 500 l 504 513 q 443 558 464 524 q 422 636 422 593 q 471 744 422 701 q 608 788 519 788 q 743 745 694 788 q 792 635 792 703 q 772 558 792 592 q 711 513 751 524 l 711 507 q 778 461 756 499 q 801 379 801 424 q 748 267 801 308 q 608 225 694 225 q 467 266 522 225 q 413 379 413 307 m 538 622 q 556 571 538 590 q 607 551 574 551 q 658 572 640 551 q 676 622 676 592 q 658 674 676 656 q 607 693 639 693 q 556 674 574 693 q 538 622 538 654 m 532 393 q 552 340 532 358 q 607 321 572 321 q 660 340 640 321 q 681 393 681 358 q 662 444 681 425 q 607 464 643 464 q 551 444 569 464 q 532 393 532 425 z "},"❾":{"ha":1211,"x_min":64,"x_max":1149,"o":"m 606 -12 q 888 53 765 -12 q 1079 235 1010 118 q 1149 506 1149 351 q 1079 778 1149 661 q 888 960 1010 894 q 606 1025 765 1025 q 325 960 447 1025 q 133 778 203 894 q 64 506 64 661 q 133 235 64 351 q 324 53 201 118 q 606 -12 446 -12 m 599 224 q 476 263 525 224 q 419 375 426 303 l 529 375 q 550 338 532 354 q 599 321 568 321 q 667 364 647 321 q 686 481 688 407 l 681 481 q 644 437 671 456 q 575 418 618 418 q 454 467 496 418 q 413 597 413 517 q 465 740 413 692 q 601 789 518 789 q 748 723 694 789 q 801 518 801 657 q 747 291 801 358 q 599 224 692 224 m 601 503 q 658 529 639 503 q 678 597 678 556 q 657 665 678 640 q 601 690 636 690 q 546 665 567 690 q 525 597 525 639 q 546 528 525 554 q 601 503 567 503 z "},"₀":{"ha":514,"x_min":25,"x_max":489,"o":"m 257 -47 q 425 33 361 -47 q 489 260 489 113 q 428 483 489 400 q 260 567 368 567 q 90 488 154 567 q 25 261 25 410 q 86 37 25 121 q 257 -47 147 -47 m 257 68 q 208 83 231 68 q 174 140 186 99 q 161 260 161 182 q 174 379 161 338 q 208 437 186 421 q 257 453 231 453 q 306 437 285 453 q 340 379 328 421 q 353 260 353 338 q 340 142 353 183 q 306 84 328 100 q 257 68 285 68 z "},"₁":{"ha":376,"x_min":17,"x_max":307,"o":"m 171 -42 l 307 -42 l 307 560 l 179 560 q 137 483 174 513 q 43 454 100 454 l 17 454 l 17 350 l 171 350 l 171 -42 z "},"₂":{"ha":501,"x_min":32,"x_max":465,"o":"m 32 -42 l 465 -42 l 465 78 l 207 78 q 253 128 222 106 q 319 175 283 151 q 387 227 354 199 q 440 294 419 256 q 461 385 461 332 q 403 519 461 471 q 251 567 346 567 q 92 510 153 567 q 35 360 32 454 l 169 360 q 188 428 165 406 q 244 450 210 450 q 299 431 278 450 q 321 378 321 413 q 292 312 321 340 q 219 256 263 283 q 133 192 176 228 q 61 104 90 156 q 32 -24 32 53 l 32 -42 z "},"₃":{"ha":519,"x_min":26,"x_max":479,"o":"m 250 -50 q 416 0 353 -50 q 479 131 479 50 q 455 219 479 183 q 386 267 431 254 l 386 272 q 446 321 422 286 q 469 404 469 356 q 411 522 469 478 q 258 567 353 567 q 95 515 157 567 q 31 375 33 463 l 167 375 q 192 431 169 411 q 253 450 214 450 q 309 433 288 450 q 331 383 331 415 q 310 334 331 353 q 253 315 290 315 l 188 315 l 188 214 l 264 214 q 318 196 297 214 q 339 144 339 178 q 315 87 339 108 q 251 65 292 65 q 186 88 210 65 q 161 144 163 110 l 26 144 q 87 5 29 60 q 250 -50 144 -50 z "},"₄":{"ha":553,"x_min":29,"x_max":519,"o":"m 307 -42 l 442 -42 l 442 92 l 518 92 l 519 203 l 442 203 l 442 560 l 275 560 l 29 193 l 29 92 l 306 92 l 307 -42 m 163 203 l 307 413 l 307 203 l 163 203 z "},"₅":{"ha":526,"x_min":39,"x_max":490,"o":"m 263 -50 q 429 8 368 -50 q 490 161 490 67 q 438 307 490 250 q 292 364 385 364 q 233 356 263 364 q 186 332 204 347 l 181 335 l 186 440 l 453 440 l 453 560 l 67 560 l 50 199 l 179 199 q 208 237 188 222 q 261 251 229 251 q 328 225 304 251 q 353 158 353 199 q 328 94 353 119 q 263 69 304 69 q 202 89 226 69 q 175 140 178 108 l 39 140 q 101 3 40 56 q 263 -50 163 -50 z "},"₆":{"ha":528,"x_min":36,"x_max":496,"o":"m 271 -49 q 433 6 371 -49 q 496 160 496 60 q 444 303 496 249 q 308 358 393 358 q 231 342 265 358 q 181 297 196 325 l 175 297 q 276 449 172 449 q 331 436 308 449 q 358 400 353 424 l 490 400 q 427 521 483 475 q 278 567 371 567 q 99 488 163 567 q 36 249 36 408 q 100 24 36 96 q 271 -49 164 -49 m 274 69 q 210 94 233 69 q 186 163 186 119 q 210 231 186 204 q 274 257 233 257 q 337 231 314 257 q 360 163 360 206 q 337 95 360 121 q 274 69 314 69 z "},"₇":{"ha":529,"x_min":36,"x_max":483,"o":"m 167 -42 l 314 -42 q 336 165 314 79 q 397 322 358 251 q 483 461 435 392 l 483 560 l 36 560 l 36 340 l 144 340 l 144 440 l 322 440 q 249 317 285 386 q 190 160 213 249 q 167 -42 167 72 z "},"₈":{"ha":526,"x_min":35,"x_max":492,"o":"m 264 -47 q 428 -2 365 -47 q 492 122 492 43 q 464 213 492 175 q 388 261 436 251 l 388 268 q 458 317 436 281 q 481 397 481 354 q 424 519 481 471 q 264 567 367 567 q 104 519 161 567 q 47 399 47 472 q 70 315 47 351 q 140 268 93 279 l 140 261 q 64 213 93 251 q 35 122 35 175 q 99 -3 35 42 q 264 -47 163 -47 m 264 315 q 205 333 226 315 q 183 385 183 351 q 205 435 183 417 q 264 454 226 454 q 322 436 300 454 q 344 385 344 418 q 324 335 344 354 q 264 315 303 315 m 264 69 q 202 88 225 69 q 179 140 179 106 q 200 191 179 172 q 264 210 221 210 q 327 191 306 210 q 349 140 349 172 q 326 88 349 106 q 264 69 303 69 z "},"₉":{"ha":529,"x_min":33,"x_max":493,"o":"m 253 -49 q 431 29 368 -49 q 493 268 493 107 q 430 494 493 421 q 257 567 367 567 q 96 512 158 567 q 33 358 33 457 q 85 215 33 269 q 221 160 136 160 q 301 177 268 160 q 349 221 333 194 l 354 221 q 331 108 356 147 q 254 68 307 68 q 201 81 224 68 q 174 117 179 94 l 40 117 q 102 -1 47 46 q 253 -49 157 -49 m 256 261 q 193 286 217 261 q 169 354 169 311 q 193 423 169 397 q 256 449 217 449 q 319 424 296 449 q 343 357 343 399 q 319 288 343 314 q 256 261 296 261 z "},"⁰":{"ha":514,"x_min":25,"x_max":489,"o":"m 257 447 q 425 527 361 447 q 489 754 489 607 q 428 978 489 894 q 260 1061 368 1061 q 90 983 154 1061 q 25 756 25 904 q 86 531 25 615 q 257 447 147 447 m 257 563 q 208 578 231 563 q 174 635 186 593 q 161 754 161 676 q 174 874 161 832 q 208 931 186 915 q 257 947 231 947 q 306 931 285 947 q 340 874 328 915 q 353 754 353 832 q 340 636 353 678 q 306 578 328 594 q 257 563 285 563 z "},"¹":{"ha":376,"x_min":17,"x_max":307,"o":"m 171 453 l 307 453 l 307 1054 l 179 1054 q 137 978 174 1007 q 43 949 100 949 l 17 949 l 17 844 l 171 844 l 171 453 z "},"²":{"ha":501,"x_min":32,"x_max":465,"o":"m 32 453 l 465 453 l 465 572 l 207 572 q 253 623 222 600 q 319 669 283 646 q 387 722 354 693 q 440 788 419 750 q 461 879 461 826 q 403 1013 461 965 q 251 1061 346 1061 q 92 1005 153 1061 q 35 854 32 949 l 169 854 q 188 922 165 900 q 244 944 210 944 q 299 926 278 944 q 321 872 321 907 q 292 806 321 835 q 219 750 263 778 q 133 686 176 722 q 61 599 90 650 q 32 471 32 547 l 32 453 z "},"³":{"ha":519,"x_min":26,"x_max":479,"o":"m 250 444 q 416 494 353 444 q 479 625 479 544 q 455 713 479 678 q 386 761 431 749 l 386 767 q 446 815 422 781 q 469 899 469 850 q 411 1017 469 972 q 258 1061 353 1061 q 95 1009 157 1061 q 31 869 33 957 l 167 869 q 192 925 169 906 q 253 944 214 944 q 309 927 288 944 q 331 878 331 910 q 310 828 331 847 q 253 810 290 810 l 188 810 l 188 708 l 264 708 q 318 690 297 708 q 339 639 339 672 q 315 581 339 603 q 251 560 292 560 q 186 582 210 560 q 161 639 163 604 l 26 639 q 87 499 29 554 q 250 444 144 444 z "},"⁴":{"ha":553,"x_min":29,"x_max":519,"o":"m 307 453 l 442 453 l 442 586 l 518 586 l 519 697 l 442 697 l 442 1054 l 275 1054 l 29 688 l 29 586 l 306 586 l 307 453 m 163 697 l 307 907 l 307 697 l 163 697 z "},"⁵":{"ha":526,"x_min":39,"x_max":490,"o":"m 263 444 q 429 503 368 444 q 490 656 490 561 q 438 801 490 744 q 292 858 385 858 q 233 850 263 858 q 186 826 204 842 l 181 829 l 186 935 l 453 935 l 453 1054 l 67 1054 l 50 693 l 179 693 q 208 731 188 717 q 261 746 229 746 q 328 719 304 746 q 353 653 353 693 q 328 589 353 614 q 263 564 304 564 q 202 583 226 564 q 175 635 178 603 l 39 635 q 101 497 40 550 q 263 444 163 444 z "},"⁶":{"ha":528,"x_min":36,"x_max":496,"o":"m 271 446 q 433 500 371 446 q 496 654 496 554 q 444 798 496 743 q 308 853 393 853 q 231 836 265 853 q 181 792 196 819 l 175 792 q 276 943 172 943 q 331 931 308 943 q 358 894 353 918 l 490 894 q 427 1015 483 969 q 278 1061 371 1061 q 99 982 163 1061 q 36 743 36 903 q 100 518 36 590 q 271 446 164 446 m 274 564 q 210 589 233 564 q 186 657 186 614 q 210 725 186 699 q 274 751 233 751 q 337 726 314 751 q 360 657 360 700 q 337 590 360 615 q 274 564 314 564 z "},"⁷":{"ha":529,"x_min":36,"x_max":483,"o":"m 167 453 l 314 453 q 336 660 314 574 q 397 816 358 746 q 483 956 435 886 l 483 1054 l 36 1054 l 36 835 l 144 835 l 144 935 l 322 935 q 249 812 285 881 q 190 655 213 743 q 167 453 167 567 z "},"⁸":{"ha":526,"x_min":35,"x_max":492,"o":"m 264 447 q 428 492 365 447 q 492 617 492 538 q 464 708 492 669 q 388 756 436 746 l 388 763 q 458 812 436 775 q 481 892 481 849 q 424 1013 481 965 q 264 1061 367 1061 q 104 1014 161 1061 q 47 893 47 967 q 70 810 47 846 q 140 763 93 774 l 140 756 q 64 708 93 746 q 35 617 35 669 q 99 492 35 536 q 264 447 163 447 m 264 810 q 205 828 226 810 q 183 879 183 846 q 205 930 183 911 q 264 949 226 949 q 322 931 300 949 q 344 879 344 913 q 324 829 344 849 q 264 810 303 810 m 264 564 q 202 582 225 564 q 179 635 179 600 q 200 685 179 667 q 264 704 221 704 q 327 685 306 704 q 349 635 349 667 q 326 582 349 600 q 264 564 303 564 z "},"⁹":{"ha":529,"x_min":33,"x_max":493,"o":"m 253 446 q 431 524 368 446 q 493 763 493 601 q 430 988 493 915 q 257 1061 367 1061 q 96 1006 158 1061 q 33 853 33 951 q 85 709 33 764 q 221 654 136 654 q 301 672 268 654 q 349 715 333 689 l 354 715 q 331 602 356 642 q 254 563 307 563 q 201 576 224 563 q 174 611 179 589 l 40 611 q 102 493 47 540 q 253 446 157 446 m 256 756 q 193 781 217 756 q 169 849 169 806 q 193 917 169 892 q 256 943 217 943 q 319 918 296 943 q 343 851 343 893 q 319 782 343 808 q 256 756 296 756 z "},"⁄":{"ha":222,"x_min":-310,"x_max":532,"o":"m -310 0 l -158 0 l 532 1001 l 379 1001 l -310 0 z "},"½":{"ha":1029,"x_min":13,"x_max":994,"o":"m 151 472 l 271 472 l 271 1001 l 158 1001 q 122 934 154 961 q 36 907 90 907 l 13 907 l 13 817 l 151 817 l 151 472 m 32 0 l 183 0 l 874 1001 l 721 1001 l 32 0 m 603 0 l 994 0 l 994 106 l 860 106 q 756 101 818 106 q 815 159 776 133 q 894 214 854 185 q 961 281 933 243 q 989 375 989 319 q 938 494 989 451 q 801 536 886 536 q 658 488 713 536 q 606 353 603 439 l 724 353 q 740 413 721 392 q 794 433 760 433 q 845 416 826 433 q 864 369 864 399 q 838 311 864 336 q 772 262 811 286 q 694 206 733 238 q 629 128 656 174 q 603 17 603 83 l 603 0 z "},"¼":{"ha":947,"x_min":13,"x_max":935,"o":"m 151 472 l 271 472 l 271 1001 l 158 1001 q 122 934 154 961 q 36 907 90 907 l 13 907 l 13 817 l 151 817 l 151 472 m 32 0 l 183 0 l 874 1001 l 721 1001 l 32 0 m 746 0 l 865 0 l 865 117 l 935 117 l 935 215 l 865 215 l 865 529 l 717 529 l 493 207 l 493 117 l 744 117 l 746 0 m 611 215 l 746 410 l 746 215 l 611 215 z "},"¾":{"ha":1079,"x_min":28,"x_max":1065,"o":"m 231 465 q 378 509 321 465 q 435 624 435 553 q 414 699 435 667 q 351 743 393 732 l 351 747 q 408 793 388 761 q 428 864 428 825 q 374 969 428 931 q 236 1008 321 1008 q 91 963 147 1008 q 32 839 35 918 l 151 839 q 175 888 154 871 q 231 906 196 906 q 283 890 263 906 q 304 847 304 875 q 285 803 304 821 q 232 786 267 786 l 172 786 l 172 697 l 240 697 q 292 681 272 697 q 313 636 313 664 q 290 587 313 606 q 231 568 267 568 q 170 587 193 568 q 147 636 147 606 l 28 636 q 84 513 31 560 q 231 465 138 465 m 164 0 l 315 0 l 1006 1001 l 853 1001 l 164 0 m 876 0 l 996 0 l 996 117 l 1065 117 l 1065 215 l 996 215 l 996 529 l 847 529 l 624 207 l 624 117 l 875 117 l 876 0 m 742 215 l 876 410 l 876 215 l 742 215 z "},"⅛":{"ha":1044,"x_min":13,"x_max":1010,"o":"m 151 472 l 271 472 l 271 1001 l 158 1001 q 122 934 154 961 q 36 907 90 907 l 13 907 l 13 817 l 151 817 l 151 472 m 32 0 l 183 0 l 874 1001 l 721 1001 l 32 0 m 804 -4 q 953 35 896 -4 q 1010 144 1010 75 q 984 226 1010 192 q 915 267 958 260 l 915 272 q 978 315 957 283 q 1000 388 1000 346 q 949 494 1000 453 q 804 536 897 536 q 660 494 711 536 q 608 388 608 453 q 632 313 608 343 q 693 272 656 282 l 693 267 q 624 224 650 258 q 599 144 599 189 q 656 35 599 75 q 804 -4 713 -4 m 804 315 q 750 331 769 315 q 731 375 731 346 q 750 419 731 403 q 804 436 769 436 q 858 420 839 436 q 878 375 878 404 q 859 332 878 349 q 804 315 840 315 m 804 99 q 747 115 768 99 q 725 160 725 131 q 745 204 725 188 q 804 221 765 221 q 863 204 843 221 q 883 160 883 188 q 862 114 883 129 q 804 99 840 99 z "},"⅜":{"ha":1175,"x_min":28,"x_max":1140,"o":"m 231 465 q 378 509 321 465 q 435 624 435 553 q 414 699 435 667 q 351 743 393 732 l 351 747 q 408 793 388 761 q 428 864 428 825 q 374 969 428 931 q 236 1008 321 1008 q 91 963 147 1008 q 32 839 35 918 l 151 839 q 175 888 154 871 q 231 906 196 906 q 283 890 263 906 q 304 847 304 875 q 285 803 304 821 q 232 786 267 786 l 172 786 l 172 697 l 240 697 q 292 681 272 697 q 313 636 313 664 q 290 587 313 606 q 231 568 267 568 q 170 587 193 568 q 147 636 147 606 l 28 636 q 84 513 31 560 q 231 465 138 465 m 164 0 l 315 0 l 1006 1001 l 853 1001 l 164 0 m 935 -4 q 1083 35 1026 -4 q 1140 144 1140 75 q 1115 226 1140 192 q 1046 267 1089 260 l 1046 272 q 1109 315 1088 283 q 1131 388 1131 346 q 1079 494 1131 453 q 935 536 1028 536 q 790 494 842 536 q 739 388 739 453 q 763 313 739 343 q 824 272 786 282 l 824 267 q 755 224 781 258 q 729 144 729 189 q 786 35 729 75 q 935 -4 843 -4 m 935 315 q 881 331 900 315 q 861 375 861 346 q 881 419 861 403 q 935 436 900 436 q 989 420 969 436 q 1008 375 1008 404 q 990 332 1008 349 q 935 315 971 315 m 935 99 q 877 115 899 99 q 856 160 856 131 q 876 204 856 188 q 935 221 896 221 q 994 204 974 221 q 1014 160 1014 188 q 992 114 1014 129 q 935 99 971 99 z "},"⅝":{"ha":1188,"x_min":40,"x_max":1153,"o":"m 240 465 q 391 517 336 465 q 446 651 446 568 q 397 779 446 729 q 267 829 349 829 q 172 801 204 829 l 167 804 l 171 897 l 407 897 l 407 1001 l 64 1001 l 50 682 l 164 682 q 242 729 182 729 q 302 706 279 729 q 325 649 325 683 q 302 592 325 614 q 242 569 279 569 q 185 588 207 569 q 161 633 164 606 l 40 633 q 96 513 42 560 q 240 465 150 465 m 175 0 l 326 0 l 1017 1001 l 864 1001 l 175 0 m 947 -4 q 1096 35 1039 -4 q 1153 144 1153 75 q 1127 226 1153 192 q 1058 267 1101 260 l 1058 272 q 1122 315 1100 283 q 1143 388 1143 346 q 1092 494 1143 453 q 947 536 1040 536 q 803 494 854 536 q 751 388 751 453 q 775 313 751 343 q 836 272 799 282 l 836 267 q 767 224 793 258 q 742 144 742 189 q 799 35 742 75 q 947 -4 856 -4 m 947 315 q 893 331 913 315 q 874 375 874 346 q 893 419 874 403 q 947 436 913 436 q 1001 420 982 436 q 1021 375 1021 404 q 1002 332 1021 349 q 947 315 983 315 m 947 99 q 890 115 911 99 q 868 160 868 131 q 888 204 868 188 q 947 221 908 221 q 1006 204 986 221 q 1026 160 1026 188 q 1005 114 1026 129 q 947 99 983 99 z "},"⅞":{"ha":1061,"x_min":13,"x_max":1028,"o":"m 132 472 l 261 472 q 281 654 261 578 q 337 792 301 731 q 417 914 372 853 l 417 1001 l 13 1001 l 13 808 l 108 808 l 108 897 l 274 897 q 206 788 239 849 q 153 650 174 728 q 132 472 132 572 m 50 0 l 201 0 l 892 1001 l 739 1001 l 50 0 m 822 -4 q 971 35 914 -4 q 1028 144 1028 75 q 1002 226 1028 192 q 933 267 976 260 l 933 272 q 997 315 975 283 q 1018 388 1018 346 q 967 494 1018 453 q 822 536 915 536 q 678 494 729 536 q 626 388 626 453 q 650 313 626 343 q 711 272 674 282 l 711 267 q 642 224 668 258 q 617 144 617 189 q 674 35 617 75 q 822 -4 731 -4 m 822 315 q 768 331 788 315 q 749 375 749 346 q 768 419 749 403 q 822 436 788 436 q 876 420 857 436 q 896 375 896 404 q 877 332 896 349 q 822 315 858 315 m 822 99 q 765 115 786 99 q 743 160 743 131 q 763 204 743 188 q 822 221 783 221 q 881 204 861 221 q 901 160 901 188 q 880 114 901 129 q 822 99 858 99 z "},".":{"ha":335,"x_min":69,"x_max":265,"o":"m 69 0 l 265 0 l 265 188 l 69 188 l 69 0 z "},",":{"ha":321,"x_min":35,"x_max":251,"o":"m 35 -233 l 86 -233 q 207 -194 163 -232 q 251 -58 251 -156 l 251 188 l 56 188 l 56 0 l 144 0 l 144 -49 q 126 -109 144 -87 q 61 -131 107 -131 l 35 -132 l 35 -233 z "},":":{"ha":335,"x_min":69,"x_max":265,"o":"m 69 558 l 265 558 l 265 744 l 69 744 l 69 558 m 69 0 l 265 0 l 265 188 l 69 188 l 69 0 z "},";":{"ha":321,"x_min":35,"x_max":251,"o":"m 56 558 l 251 558 l 251 744 l 56 744 l 56 558 m 35 -233 l 86 -233 q 207 -194 163 -232 q 251 -58 251 -156 l 251 188 l 56 188 l 56 0 l 144 0 l 144 -49 q 126 -109 144 -87 q 61 -131 107 -131 l 35 -132 l 35 -233 z "},"…":{"ha":1004,"x_min":69,"x_max":935,"o":"m 69 0 l 265 0 l 265 188 l 69 188 l 69 0 m 404 0 l 600 0 l 600 188 l 404 188 l 404 0 m 739 0 l 935 0 l 935 188 l 739 188 l 739 0 z "},"!":{"ha":390,"x_min":92,"x_max":300,"o":"m 143 303 l 249 303 l 300 679 l 300 1013 l 92 1013 l 92 679 l 143 303 m 103 0 l 288 0 l 288 190 l 103 190 l 103 0 z "},"¡":{"ha":390,"x_min":90,"x_max":299,"o":"m 247 443 l 142 443 l 90 67 l 90 -267 l 299 -267 l 299 67 l 247 443 m 288 746 l 103 746 l 103 556 l 288 556 l 288 746 z "},"?":{"ha":790,"x_min":47,"x_max":739,"o":"m 314 293 l 497 293 l 497 307 q 522 387 497 350 q 582 460 546 424 q 654 539 618 497 q 715 631 690 581 q 739 749 739 682 q 656 949 739 872 q 404 1025 572 1025 q 215 986 296 1025 q 91 877 135 947 q 47 714 47 807 l 246 714 q 286 814 246 775 q 394 853 326 853 q 492 821 456 853 q 529 728 529 789 q 508 646 529 683 q 454 573 486 608 q 390 501 422 538 q 335 419 357 464 q 314 319 314 375 l 314 293 m 307 0 l 504 0 l 504 188 l 307 188 l 307 0 z "},"¿":{"ha":790,"x_min":47,"x_max":739,"o":"m 472 451 l 289 451 l 289 438 q 265 358 289 394 q 204 284 240 321 q 132 206 168 247 q 72 113 96 164 q 47 -4 47 63 q 131 -204 47 -128 q 382 -281 214 -281 q 571 -242 490 -281 q 695 -133 651 -203 q 739 31 739 -62 l 540 31 q 500 -69 540 -31 q 392 -108 460 -108 q 294 -76 331 -108 q 257 17 257 -44 q 278 99 257 61 q 332 172 300 136 q 397 244 364 207 q 451 325 429 281 q 472 425 472 369 l 472 451 m 479 744 l 282 744 l 282 557 l 479 557 l 479 744 z "},"·":{"ha":389,"x_min":69,"x_max":319,"o":"m 69 385 q 105 297 69 332 q 194 261 140 261 q 285 297 251 261 q 319 385 319 332 q 285 473 319 438 q 194 508 251 508 q 105 473 140 508 q 69 385 69 438 z "},"•":{"ha":482,"x_min":64,"x_max":419,"o":"m 64 385 q 115 259 64 310 q 242 208 165 208 q 371 259 322 208 q 419 385 419 310 q 371 511 419 461 q 242 561 322 561 q 115 511 165 561 q 64 385 64 461 z "},"*":{"ha":451,"x_min":35,"x_max":417,"o":"m 183 621 l 268 621 l 268 686 l 249 774 l 318 714 l 376 682 l 417 754 l 360 786 l 275 817 l 360 846 l 417 878 l 376 950 l 318 918 l 249 860 l 268 947 l 268 1013 l 183 1013 l 183 947 l 203 860 l 135 918 l 76 950 l 35 878 l 92 846 l 176 817 l 92 786 l 35 754 l 76 682 l 135 714 l 203 774 l 183 686 l 183 621 z "},"#":{"ha":951,"x_min":47,"x_max":903,"o":"m 188 0 l 369 0 l 369 242 l 586 242 l 586 0 l 767 0 l 767 242 l 903 242 l 903 406 l 767 406 l 767 618 l 903 618 l 903 782 l 767 782 l 767 1014 l 586 1014 l 586 782 l 369 782 l 369 1014 l 188 1014 l 188 782 l 47 782 l 47 618 l 188 618 l 188 406 l 47 406 l 47 242 l 188 242 l 188 0 m 369 406 l 369 618 l 586 618 l 586 406 l 369 406 z "},"/":{"ha":722,"x_min":42,"x_max":651,"o":"m 42 -114 l 236 -114 l 651 1013 l 456 1013 l 42 -114 z "},"\\":{"ha":722,"x_min":71,"x_max":681,"o":"m 486 -114 l 681 -114 l 267 1013 l 71 1013 l 486 -114 z "},"(":{"ha":526,"x_min":63,"x_max":485,"o":"m 308 -232 l 485 -232 q 367 -52 418 -158 q 288 180 317 54 q 260 435 260 306 q 288 688 260 563 q 366 919 315 813 q 485 1101 417 1026 l 308 1101 q 177 922 232 1029 q 92 689 122 814 q 63 435 63 564 q 92 181 63 307 q 177 -51 122 56 q 308 -232 232 -158 z "},")":{"ha":526,"x_min":42,"x_max":464,"o":"m 218 1101 l 42 1101 q 159 922 108 1028 q 238 690 210 815 q 267 435 267 564 q 239 182 267 307 q 160 -50 211 57 q 42 -232 110 -157 l 218 -232 q 349 -52 294 -160 q 434 181 404 56 q 464 435 464 306 q 434 688 464 563 q 349 921 404 814 q 218 1101 294 1028 z "},"{":{"ha":567,"x_min":56,"x_max":554,"o":"m 321 -232 l 554 -232 l 554 -78 l 369 -78 l 369 253 q 342 364 369 317 q 253 431 314 411 l 253 435 q 336 485 303 444 q 369 607 369 525 l 369 946 l 554 946 l 554 1101 l 321 1101 q 213 1061 249 1101 q 178 960 178 1021 l 178 614 q 154 533 178 563 q 90 503 131 503 l 56 503 l 56 350 l 90 350 q 153 322 128 350 q 178 240 178 293 l 178 -90 q 213 -191 178 -150 q 321 -232 249 -232 z "},"}":{"ha":567,"x_min":13,"x_max":511,"o":"m 246 1101 l 13 1101 l 13 947 l 197 947 l 197 617 q 225 506 197 553 q 314 439 253 458 l 314 435 q 231 385 264 425 q 197 263 197 344 l 197 -76 l 13 -76 l 13 -232 l 246 -232 q 353 -192 318 -232 q 389 -90 389 -151 l 389 256 q 413 337 389 307 q 476 367 436 367 l 511 367 l 511 519 l 476 519 q 414 548 439 519 q 389 629 389 576 l 389 960 q 353 1060 389 1019 q 246 1101 318 1101 z "},"[":{"ha":497,"x_min":110,"x_max":486,"o":"m 110 -232 l 486 -232 l 486 -78 l 300 -78 l 300 946 l 486 946 l 486 1101 l 110 1101 l 110 -232 z "},"]":{"ha":497,"x_min":11,"x_max":388,"o":"m 388 1101 l 11 1101 l 11 947 l 197 947 l 197 -76 l 11 -76 l 11 -232 l 388 -232 l 388 1101 z "},"-":{"ha":538,"x_min":42,"x_max":496,"o":"m 42 286 l 496 286 l 496 458 l 42 458 l 42 286 z "},"–":{"ha":721,"x_min":42,"x_max":679,"o":"m 42 286 l 679 286 l 679 458 l 42 458 l 42 286 z "},"—":{"ha":958,"x_min":42,"x_max":917,"o":"m 42 286 l 917 286 l 917 458 l 42 458 l 42 286 z "},"_":{"ha":532,"x_min":0,"x_max":532,"o":"m 0 -172 l 532 -172 l 532 0 l 0 0 l 0 -172 z "},"‚":{"ha":321,"x_min":35,"x_max":251,"o":"m 35 -233 l 86 -233 q 207 -194 163 -232 q 251 -58 251 -156 l 251 188 l 56 188 l 56 0 l 144 0 l 144 -49 q 126 -109 144 -87 q 61 -131 107 -131 l 35 -132 l 35 -233 z "},"„":{"ha":624,"x_min":35,"x_max":554,"o":"m 35 -233 l 86 -233 q 207 -194 163 -232 q 251 -58 251 -156 l 251 188 l 56 188 l 56 0 l 144 0 l 144 -49 q 126 -109 144 -87 q 61 -131 107 -131 l 35 -132 l 35 -233 m 338 -233 l 389 -233 q 510 -194 465 -232 q 554 -58 554 -156 l 554 188 l 358 188 l 358 0 l 447 0 l 447 -49 q 428 -109 447 -87 q 364 -131 410 -131 l 338 -132 l 338 -233 z "},"“":{"ha":624,"x_min":69,"x_max":589,"o":"m 589 1013 l 538 1013 q 417 973 461 1011 q 372 838 372 935 l 372 592 l 568 592 l 568 779 l 479 779 l 479 828 q 498 888 479 867 q 563 910 517 910 l 589 911 l 589 1013 m 286 1013 l 235 1013 q 114 973 158 1011 q 69 838 69 935 l 69 592 l 265 592 l 265 779 l 176 779 l 176 828 q 195 888 176 867 q 260 910 214 910 l 286 911 l 286 1013 z "},"”":{"ha":624,"x_min":35,"x_max":554,"o":"m 35 592 l 86 592 q 207 631 163 593 q 251 767 251 669 l 251 1013 l 56 1013 l 56 825 l 144 825 l 144 776 q 126 716 144 738 q 61 694 107 694 l 35 693 l 35 592 m 338 592 l 389 592 q 510 631 465 593 q 554 767 554 669 l 554 1013 l 358 1013 l 358 825 l 447 825 l 447 776 q 428 716 447 738 q 364 694 410 694 l 338 693 l 338 592 z "},"‘":{"ha":321,"x_min":69,"x_max":286,"o":"m 286 1013 l 235 1013 q 114 973 158 1011 q 69 838 69 935 l 69 592 l 265 592 l 265 779 l 176 779 l 176 828 q 195 888 176 867 q 260 910 214 910 l 286 911 l 286 1013 z "},"’":{"ha":321,"x_min":35,"x_max":251,"o":"m 35 592 l 86 592 q 207 631 163 593 q 251 767 251 669 l 251 1013 l 56 1013 l 56 825 l 144 825 l 144 776 q 126 716 144 738 q 61 694 107 694 l 35 693 l 35 592 z "},"«":{"ha":738,"x_min":38,"x_max":704,"o":"m 214 0 l 389 0 l 226 374 l 389 744 l 214 744 l 38 374 l 214 0 m 526 0 l 704 0 l 539 374 l 704 744 l 526 744 l 351 374 l 526 0 z "},"»":{"ha":738,"x_min":33,"x_max":700,"o":"m 524 744 l 349 744 l 511 371 l 349 0 l 524 0 l 700 371 l 524 744 m 211 744 l 33 744 l 199 371 l 33 0 l 211 0 l 386 371 l 211 744 z "},"‹":{"ha":422,"x_min":38,"x_max":389,"o":"m 214 0 l 389 0 l 226 374 l 389 744 l 214 744 l 38 374 l 214 0 z "},"›":{"ha":422,"x_min":33,"x_max":385,"o":"m 208 744 l 33 744 l 196 371 l 33 0 l 208 0 l 385 371 l 208 744 z "},"\"":{"ha":671,"x_min":90,"x_max":581,"o":"m 226 531 l 272 790 l 272 1013 l 90 1013 l 90 790 l 136 531 l 226 531 m 536 531 l 581 790 l 581 1013 l 399 1013 l 399 790 l 446 531 l 536 531 z "},"'":{"ha":363,"x_min":90,"x_max":272,"o":"m 226 531 l 272 790 l 272 1013 l 90 1013 l 90 790 l 136 531 l 226 531 z "}," ":{"ha":296,"x_min":0,"x_max":0,"o":""}," ":{"ha":296,"x_min":0,"x_max":0,"o":""},"\r":{"ha":258,"x_min":0,"x_max":0,"o":""},"€":{"ha":1156,"x_min":49,"x_max":1107,"o":"m 49 342 l 144 342 q 317 79 188 171 q 635 -12 446 -12 q 865 33 763 -12 q 1031 160 967 78 q 1107 351 1094 242 l 883 351 q 798 224 867 272 q 635 176 729 176 q 477 217 543 176 q 379 342 411 258 l 635 342 l 650 450 l 356 450 q 353 507 353 478 q 356 563 353 536 l 667 563 l 682 668 l 378 668 q 476 794 410 753 q 635 836 542 836 q 799 788 733 836 q 883 664 865 740 l 1107 664 q 1030 853 1093 772 q 865 980 967 935 q 635 1025 764 1025 q 316 933 446 1025 q 143 668 186 840 l 49 668 l 49 563 l 126 563 q 125 507 125 535 q 128 450 125 478 l 49 450 l 49 342 z "},"₿":{"ha":971,"x_min":110,"x_max":922,"o":"m 110 0 l 276 0 l 276 -118 l 399 -118 l 399 0 l 514 0 l 514 -118 l 636 -118 l 636 4 q 850 99 778 22 q 922 290 922 175 q 876 440 922 376 q 742 521 829 503 l 742 532 q 855 613 815 553 q 894 753 894 674 q 830 928 894 860 q 636 1010 765 997 l 636 1132 l 515 1132 l 515 1013 l 399 1013 l 399 1132 l 278 1132 l 278 1013 l 110 1013 l 110 0 m 319 597 l 319 847 l 522 847 q 627 815 588 847 q 667 721 667 782 q 632 631 667 665 q 528 597 597 597 l 319 597 m 319 167 l 319 438 l 538 438 q 653 403 615 438 q 692 304 692 368 q 652 203 692 240 q 531 167 613 167 l 319 167 z "},"¢":{"ha":813,"x_min":49,"x_max":765,"o":"m 340 -118 l 475 -118 l 475 -10 q 678 81 599 6 q 765 275 758 157 l 567 275 q 523 188 561 221 q 419 154 485 154 q 301 208 346 154 q 256 372 256 263 q 298 532 256 472 q 421 592 340 592 q 515 562 476 592 q 564 474 554 532 l 763 474 q 723 610 760 550 q 622 708 686 671 q 475 756 558 746 l 475 860 l 340 860 l 340 751 q 127 626 206 726 q 49 372 49 525 q 128 119 49 219 q 340 -6 207 18 l 340 -118 z "},"¤":{"ha":914,"x_min":68,"x_max":846,"o":"m 182 99 l 322 239 q 385 219 351 226 q 457 211 418 211 q 526 218 490 211 q 590 239 561 225 l 732 99 l 846 213 l 711 347 q 740 413 731 378 q 749 483 749 449 q 711 624 749 561 l 844 757 l 731 872 l 589 729 q 523 751 557 744 q 457 757 489 757 q 388 750 424 757 q 325 729 353 743 l 182 872 l 68 757 l 203 624 q 165 483 165 564 q 174 415 165 450 q 201 347 183 379 l 68 213 l 182 99 m 457 368 q 371 400 406 368 q 336 483 336 432 q 371 569 336 536 q 457 601 406 601 q 543 569 508 601 q 578 483 578 536 q 543 400 578 432 q 457 368 508 368 z "},"$":{"ha":904,"x_min":47,"x_max":853,"o":"m 389 -118 l 513 -118 l 513 -10 q 767 86 682 4 q 853 293 853 168 q 824 442 853 385 q 747 533 796 500 q 639 583 699 565 q 517 610 579 600 q 385 638 435 625 q 313 675 335 651 q 290 744 290 699 q 331 831 290 799 q 443 864 372 864 q 557 831 510 864 q 607 724 604 797 l 824 724 q 740 926 822 846 q 513 1022 657 1007 l 513 1132 l 389 1132 l 389 1022 q 153 928 239 1008 q 67 717 67 847 q 109 565 67 624 q 228 474 151 507 q 407 422 304 440 q 540 393 492 408 q 608 351 588 378 q 629 274 629 324 q 583 181 629 211 q 458 151 536 151 q 312 197 357 151 q 265 318 267 242 l 47 318 q 134 93 47 182 q 389 -10 221 4 l 389 -118 z "},"₺":{"ha":913,"x_min":14,"x_max":865,"o":"m 128 0 l 296 0 q 584 55 460 0 q 782 217 708 110 q 865 479 856 324 l 654 479 q 558 275 640 353 q 332 197 476 197 l 332 442 l 532 525 l 532 681 l 332 597 l 332 710 l 532 794 l 532 950 l 332 867 l 332 1013 l 128 1013 l 128 788 l 14 740 l 14 586 l 128 632 l 128 518 l 14 472 l 14 317 l 128 361 l 128 0 z "},"₹":{"ha":869,"x_min":110,"x_max":868,"o":"m 533 0 l 760 0 l 760 21 q 745 37 753 25 q 735 68 738 49 l 701 256 q 650 378 688 338 q 547 435 613 419 l 547 446 q 682 505 628 460 q 753 621 736 550 l 868 621 l 868 750 l 754 750 q 724 825 749 790 q 667 875 700 860 l 667 883 l 868 883 l 868 1013 l 110 1013 l 110 847 l 340 847 q 476 821 431 847 q 531 740 521 794 l 110 740 l 110 631 l 531 631 q 477 551 521 579 q 343 524 433 524 l 110 524 l 110 371 l 308 371 q 385 361 353 371 q 440 322 418 351 q 474 233 463 292 l 506 64 q 520 21 513 36 q 533 0 528 6 z "},"₪":{"ha":1142,"x_min":110,"x_max":1032,"o":"m 553 0 l 1032 0 l 1032 1013 l 857 1013 l 857 164 l 524 164 l 524 763 l 379 763 l 379 178 q 401 69 379 107 q 463 15 424 31 q 553 0 501 0 m 110 0 l 285 0 l 285 849 l 618 849 l 618 251 l 763 251 l 763 835 q 741 944 763 906 q 681 997 719 982 q 589 1013 642 1013 l 110 1013 l 110 0 z "},"£":{"ha":890,"x_min":32,"x_max":836,"o":"m 32 0 l 836 0 l 836 288 l 661 288 l 661 175 l 350 175 l 350 418 l 592 418 l 592 572 l 350 572 l 350 703 q 384 805 350 767 q 485 843 418 843 q 583 809 546 843 q 619 708 619 775 l 619 685 l 815 685 l 815 719 q 728 942 815 860 q 482 1024 640 1024 q 234 942 328 1024 q 140 703 140 860 l 140 572 l 32 572 l 32 418 l 140 418 l 140 175 l 32 175 l 32 0 z "},"¥":{"ha":903,"x_min":1,"x_max":900,"o":"m 349 0 l 556 0 l 556 146 l 801 146 l 801 289 l 556 289 l 556 397 l 801 397 l 801 542 l 644 542 l 900 1013 l 678 1013 l 454 569 l 444 569 l 225 1013 l 1 1013 l 261 542 l 100 542 l 100 397 l 349 397 l 349 289 l 100 289 l 100 146 l 349 146 l 349 0 z "},"+":{"ha":756,"x_min":49,"x_max":707,"o":"m 296 171 l 461 171 l 461 421 l 707 421 l 707 581 l 461 581 l 461 831 l 296 831 l 296 581 l 49 581 l 49 421 l 296 421 l 296 171 z "},"−":{"ha":919,"x_min":131,"x_max":790,"o":"m 131 421 l 790 421 l 790 581 l 131 581 l 131 421 z "},"×":{"ha":810,"x_min":97,"x_max":711,"o":"m 207 194 l 406 392 l 601 194 l 711 304 l 515 501 l 711 699 l 601 808 l 406 611 l 207 808 l 97 699 l 296 501 l 97 304 l 207 194 z "},"÷":{"ha":918,"x_min":110,"x_max":808,"o":"m 368 675 l 550 675 l 550 832 l 368 832 l 368 675 m 110 421 l 808 421 l 808 581 l 110 581 l 110 421 m 368 171 l 550 171 l 550 326 l 368 326 l 368 171 z "},"=":{"ha":919,"x_min":131,"x_max":790,"o":"m 131 583 l 790 583 l 790 744 l 131 744 l 131 583 m 131 258 l 790 258 l 790 418 l 131 418 l 131 258 z "},"≠":{"ha":863,"x_min":101,"x_max":761,"o":"m 175 99 l 331 99 l 403 258 l 761 258 l 761 418 l 472 418 l 549 583 l 761 583 l 761 744 l 617 744 l 689 903 l 533 903 l 463 744 l 101 744 l 101 583 l 393 583 l 317 418 l 101 418 l 101 258 l 247 258 l 175 99 z "},">":{"ha":954,"x_min":131,"x_max":824,"o":"m 131 129 l 824 385 l 824 614 l 131 872 l 131 669 l 621 507 l 621 492 l 131 333 l 131 129 z "},"<":{"ha":954,"x_min":131,"x_max":824,"o":"m 824 129 l 824 333 l 335 492 l 335 507 l 824 669 l 824 872 l 131 614 l 131 385 l 824 129 z "},"≥":{"ha":951,"x_min":128,"x_max":824,"o":"m 128 210 l 824 439 l 824 664 l 128 888 l 128 704 l 621 557 l 621 546 l 128 393 l 128 210 m 128 0 l 824 0 l 824 143 l 128 143 l 128 0 z "},"≤":{"ha":951,"x_min":128,"x_max":824,"o":"m 824 210 l 824 393 l 331 546 l 331 557 l 824 704 l 824 888 l 128 664 l 128 439 l 824 210 m 128 0 l 824 0 l 824 143 l 128 143 l 128 0 z "},"±":{"ha":878,"x_min":90,"x_max":789,"o":"m 357 257 l 522 257 l 522 468 l 789 468 l 789 629 l 522 629 l 522 840 l 357 840 l 357 629 l 90 629 l 90 468 l 357 468 l 357 257 m 90 0 l 789 0 l 789 143 l 90 143 l 90 0 z "},"≈":{"ha":918,"x_min":157,"x_max":765,"o":"m 588 308 q 715 367 665 308 q 757 550 765 425 l 732 550 q 753 618 746 579 q 757 707 760 657 l 656 707 q 635 647 656 671 q 575 622 615 622 q 514 635 543 622 q 456 663 485 647 q 396 692 428 679 q 324 704 364 704 q 242 682 282 704 q 180 608 203 660 q 163 465 157 556 l 186 465 q 165 399 172 438 q 163 310 158 361 l 264 310 q 276 365 261 338 q 329 392 290 392 q 383 379 356 392 q 440 350 410 367 q 506 321 469 333 q 588 308 542 308 m 324 547 q 314 547 318 547 q 329 549 321 549 q 358 544 343 549 q 324 547 342 547 z "},"¬":{"ha":932,"x_min":136,"x_max":796,"o":"m 640 199 l 796 199 l 796 582 l 136 582 l 136 424 l 640 424 l 640 199 z "},"~":{"ha":861,"x_min":126,"x_max":736,"o":"m 132 386 l 235 386 q 248 442 232 415 q 300 469 264 469 q 353 456 326 469 q 410 426 381 443 q 476 397 440 410 q 558 383 513 383 q 643 406 601 383 q 710 481 685 428 q 729 628 736 535 l 628 628 q 607 568 626 592 q 547 544 588 544 q 485 557 514 544 q 428 585 457 569 q 367 614 399 601 q 294 626 335 626 q 209 602 249 626 q 148 525 169 578 q 132 386 126 472 z "},"^":{"ha":667,"x_min":29,"x_max":636,"o":"m 29 653 l 217 653 l 333 856 l 447 653 l 636 653 l 439 1013 l 226 1013 l 29 653 z "},"∞":{"ha":1269,"x_min":49,"x_max":1219,"o":"m 351 186 q 517 238 446 186 q 633 365 588 289 q 751 237 682 288 q 918 186 821 186 q 1072 227 1004 186 q 1180 340 1140 268 q 1219 504 1219 411 q 1181 669 1219 596 q 1074 784 1142 742 q 917 826 1006 826 q 750 772 819 826 q 633 643 681 717 q 519 772 589 717 q 353 826 449 826 q 197 784 265 826 q 88 669 128 742 q 49 504 49 596 q 88 338 49 410 q 197 226 128 267 q 351 186 265 186 m 364 375 q 274 413 307 375 q 240 507 240 451 q 274 601 240 563 q 364 639 308 639 q 463 601 421 639 q 540 508 506 564 q 463 413 506 451 q 364 375 419 375 m 904 375 q 807 413 849 375 q 729 508 765 450 q 806 601 764 563 q 904 639 849 639 q 994 601 961 639 q 1026 507 1026 563 q 994 414 1026 453 q 904 375 961 375 z "},"∅":{"ha":1065,"x_min":32,"x_max":1035,"o":"m 533 -4 q 730 33 639 -4 q 890 139 821 71 q 997 301 958 207 q 1035 508 1035 394 q 997 713 1035 619 q 890 874 958 806 q 730 979 821 942 q 533 1017 639 1017 q 336 980 428 1017 q 176 875 244 943 q 70 714 108 807 q 32 508 32 621 q 70 301 32 394 q 176 139 108 207 q 336 33 244 71 q 533 -4 428 -4 m 156 328 q 129 414 139 368 q 119 508 119 460 q 175 730 119 633 q 325 881 231 826 q 533 935 419 935 q 725 890 638 935 q 869 764 813 844 l 156 328 m 533 78 q 339 126 428 78 q 193 257 250 175 l 910 694 q 938 606 928 653 q 947 508 947 560 q 892 286 947 383 q 742 133 836 189 q 533 78 649 78 z "},"∫":{"ha":613,"x_min":13,"x_max":600,"o":"m 13 -210 l 232 -210 q 361 -162 314 -210 q 408 -32 408 -115 l 408 847 l 600 847 l 600 1013 l 379 1013 q 251 966 299 1013 q 204 833 204 919 l 204 -46 l 13 -46 l 13 -210 z "},"∏":{"ha":1100,"x_min":110,"x_max":992,"o":"m 110 -210 l 326 -210 l 326 818 l 775 818 l 775 -210 l 992 -210 l 992 1013 l 110 1013 l 110 -210 z "},"∑":{"ha":919,"x_min":110,"x_max":810,"o":"m 110 -210 l 810 -210 l 810 1 l 560 1 l 379 -1 l 379 10 l 714 401 l 379 793 l 379 804 l 560 801 l 810 801 l 810 1013 l 110 1013 l 110 788 l 425 415 l 425 388 l 110 15 l 110 -210 z "},"√":{"ha":1022,"x_min":13,"x_max":1011,"o":"m 339 -210 l 625 -210 l 1011 1013 l 781 1013 l 486 11 l 478 11 l 307 636 l 13 636 l 13 443 l 138 443 l 339 -210 z "},"%":{"ha":1217,"x_min":63,"x_max":1154,"o":"m 217 0 l 356 0 l 1000 1013 l 860 1013 l 217 0 m 275 472 q 429 542 369 472 q 489 739 489 611 q 433 934 489 860 q 278 1008 378 1008 q 122 938 181 1008 q 63 742 63 868 q 118 546 63 619 q 275 472 174 472 m 275 586 q 237 597 254 586 q 209 642 219 608 q 199 740 199 675 q 209 840 199 807 q 237 883 219 872 q 275 893 254 893 q 315 883 297 893 q 342 840 332 872 q 353 740 353 807 q 342 641 353 674 q 315 597 332 608 q 275 586 297 586 m 939 -6 q 1095 65 1036 -6 q 1154 263 1154 135 q 1099 458 1154 383 q 943 532 1043 532 q 787 463 846 532 q 728 265 728 393 q 783 69 728 144 q 939 -6 839 -6 m 942 110 q 903 121 921 110 q 874 165 885 132 q 864 264 864 197 q 874 363 864 331 q 903 406 885 396 q 942 417 921 417 q 980 406 963 417 q 1008 363 997 396 q 1018 264 1018 331 q 1008 165 1018 197 q 980 121 997 132 q 942 110 963 110 z "},"‰":{"ha":1699,"x_min":63,"x_max":1636,"o":"m 217 0 l 356 0 l 1000 1013 l 860 1013 l 217 0 m 275 472 q 429 542 369 472 q 489 739 489 611 q 433 934 489 860 q 278 1008 378 1008 q 122 938 181 1008 q 63 742 63 868 q 118 546 63 619 q 275 472 174 472 m 275 586 q 237 597 254 586 q 209 642 219 608 q 199 740 199 675 q 209 840 199 807 q 237 883 219 872 q 275 893 254 893 q 315 883 297 893 q 342 840 332 872 q 353 740 353 807 q 342 641 353 674 q 315 597 332 608 q 275 586 297 586 m 939 -6 q 1095 65 1036 -6 q 1154 263 1154 135 q 1099 458 1154 383 q 943 532 1043 532 q 787 463 846 532 q 728 265 728 393 q 783 69 728 144 q 939 -6 839 -6 m 1422 -6 q 1577 65 1518 -6 q 1636 263 1636 135 q 1581 458 1636 383 q 1425 532 1525 532 q 1269 463 1328 532 q 1210 265 1210 393 q 1265 69 1210 144 q 1422 -6 1321 -6 m 942 110 q 903 121 921 110 q 874 165 885 132 q 864 264 864 197 q 874 363 864 331 q 903 406 885 396 q 942 417 921 417 q 980 406 963 417 q 1008 363 997 396 q 1018 264 1018 331 q 1008 165 1018 197 q 980 121 997 132 q 942 110 963 110 m 1424 110 q 1385 121 1403 110 q 1356 165 1367 132 q 1346 264 1346 197 q 1356 363 1346 331 q 1385 406 1367 396 q 1424 417 1403 417 q 1462 406 1444 417 q 1490 363 1479 396 q 1500 264 1500 331 q 1490 165 1500 197 q 1462 121 1479 132 q 1424 110 1444 110 z "},"↑":{"ha":757,"x_min":78,"x_max":679,"o":"m 290 111 l 467 111 l 467 663 l 679 518 l 679 700 l 379 901 l 78 700 l 78 518 l 290 663 l 290 111 z "},"→":{"ha":1036,"x_min":128,"x_max":918,"o":"m 128 596 l 128 418 l 678 418 l 535 206 l 715 206 l 918 507 l 715 808 l 535 808 l 678 596 l 128 596 z "},"↓":{"ha":760,"x_min":82,"x_max":683,"o":"m 294 901 l 294 350 l 82 494 l 82 313 l 382 111 l 683 313 l 683 494 l 471 350 l 471 901 l 294 901 z "},"←":{"ha":1036,"x_min":118,"x_max":908,"o":"m 908 596 l 358 596 l 501 808 l 321 808 l 118 507 l 321 206 l 501 206 l 358 418 l 908 418 l 908 596 z "},"↔":{"ha":1153,"x_min":51,"x_max":1101,"o":"m 253 206 l 435 206 l 292 418 l 863 418 l 718 206 l 900 206 l 1101 507 l 900 808 l 718 808 l 863 596 l 292 596 l 435 808 l 253 808 l 51 507 l 253 206 z "},"☹":{"ha":1111,"x_min":32,"x_max":1081,"o":"m 557 -14 q 765 24 669 -14 q 932 131 861 61 q 1042 297 1003 200 q 1081 510 1081 393 q 1042 718 1081 624 q 932 882 1003 813 q 765 989 861 951 q 557 1026 669 1026 q 347 989 443 1026 q 181 883 251 951 q 71 719 110 814 q 32 510 32 625 q 71 297 32 393 q 181 131 110 200 q 347 24 251 61 q 557 -14 443 -14 m 557 69 q 330 124 428 69 q 176 278 232 179 q 121 510 121 378 q 176 737 121 639 q 330 889 232 835 q 557 943 428 943 q 784 889 686 943 q 937 737 882 835 q 992 510 992 639 q 937 278 992 378 q 784 124 882 179 q 557 69 686 69 m 435 543 q 488 567 467 543 q 508 638 508 590 q 490 704 508 678 q 435 731 471 731 q 380 707 400 731 q 360 638 360 683 q 378 570 360 597 q 435 543 397 543 m 682 543 q 737 567 715 543 q 758 638 758 590 q 739 703 758 676 q 682 731 719 731 q 628 707 650 731 q 606 638 606 683 q 625 570 606 597 q 682 543 644 543 m 243 251 l 318 251 q 412 342 349 308 q 556 376 475 376 q 699 343 635 376 q 793 251 763 310 l 869 251 q 753 394 839 343 q 556 444 668 444 q 360 394 444 444 q 243 251 275 343 z "},"☺":{"ha":1111,"x_min":32,"x_max":1081,"o":"m 557 -14 q 765 24 669 -14 q 932 131 861 61 q 1042 297 1003 200 q 1081 510 1081 393 q 1042 718 1081 624 q 932 882 1003 813 q 765 989 861 951 q 557 1026 669 1026 q 347 989 443 1026 q 181 883 251 951 q 71 719 110 814 q 32 510 32 625 q 71 297 32 393 q 181 131 110 200 q 347 24 251 61 q 557 -14 443 -14 m 557 69 q 330 124 428 69 q 176 278 232 179 q 121 510 121 378 q 176 737 121 639 q 330 889 232 835 q 557 943 428 943 q 784 889 686 943 q 937 737 882 835 q 992 510 992 639 q 937 278 992 378 q 784 124 882 179 q 557 69 686 69 m 435 543 q 488 567 467 543 q 508 638 508 590 q 490 704 508 678 q 435 731 471 731 q 380 707 400 731 q 360 638 360 683 q 378 570 360 597 q 435 543 397 543 m 682 543 q 737 567 715 543 q 758 638 758 590 q 739 703 758 676 q 682 731 719 731 q 628 707 650 731 q 606 638 606 683 q 625 570 606 597 q 682 543 644 543 m 556 165 q 710 197 642 165 q 825 286 779 229 q 883 418 871 343 l 922 418 l 922 458 l 754 458 l 754 418 l 801 418 q 717 291 783 339 q 556 243 650 243 q 395 291 463 243 q 311 418 328 339 l 358 418 l 358 458 l 190 458 l 190 418 l 229 418 q 288 286 243 343 q 401 197 332 229 q 556 165 471 165 z "},"✓":{"ha":1303,"x_min":146,"x_max":1156,"o":"m 463 121 l 1156 751 l 1042 886 l 478 371 l 272 622 l 146 507 l 463 121 z "},"@":{"ha":1228,"x_min":49,"x_max":1178,"o":"m 631 -140 q 831 -109 735 -140 q 979 -31 926 -78 l 926 75 q 803 12 875 36 q 640 -12 731 -12 q 403 41 504 -12 q 249 197 303 94 q 194 447 194 300 q 244 676 194 575 q 392 838 294 778 q 632 897 490 897 q 841 852 749 897 q 987 718 933 807 q 1040 499 1040 629 q 1006 332 1040 394 q 913 269 972 269 q 853 303 874 269 q 838 414 832 336 l 860 700 l 768 700 l 751 624 l 743 624 q 688 689 726 664 q 601 714 650 714 q 430 635 496 714 q 364 413 364 557 q 422 220 364 290 q 576 150 479 150 q 677 179 635 150 q 738 256 719 208 l 749 256 q 807 174 764 204 q 914 143 850 143 q 1049 188 989 143 q 1143 315 1108 233 q 1178 508 1178 397 q 1107 780 1178 664 q 913 960 1036 896 q 628 1025 789 1025 q 394 983 500 1025 q 210 863 288 940 q 91 677 133 785 q 49 440 49 569 q 118 135 49 267 q 318 -68 188 4 q 631 -140 449 -140 m 600 271 q 526 309 554 271 q 499 419 499 347 q 526 546 499 497 q 614 594 554 594 q 689 556 661 594 q 721 439 717 518 q 687 317 717 363 q 600 271 657 271 z "},"&":{"ha":1021,"x_min":61,"x_max":1017,"o":"m 376 -14 q 546 15 465 -14 q 678 103 626 44 l 771 0 l 1017 0 l 814 219 q 856 299 838 253 q 882 389 874 344 l 1000 389 l 1000 542 l 744 542 q 731 437 743 490 q 699 346 719 383 l 535 526 l 535 533 q 674 633 621 568 q 726 783 726 697 q 692 909 726 854 q 597 995 658 964 q 457 1026 536 1026 q 304 994 371 1026 q 200 906 238 963 q 163 775 163 850 q 192 653 163 711 q 275 544 222 596 q 118 426 175 503 q 61 261 61 350 q 102 111 61 172 q 215 18 143 50 q 376 -14 286 -14 m 432 631 q 379 694 401 661 q 357 765 357 728 q 384 834 357 806 q 457 863 411 863 q 524 835 499 863 q 550 767 550 808 q 521 688 550 724 q 440 631 492 653 l 432 631 m 265 286 q 295 376 265 338 q 375 436 325 414 l 567 225 q 410 154 515 154 q 306 188 347 154 q 265 286 265 222 z "},"¶":{"ha":1075,"x_min":13,"x_max":965,"o":"m 306 -210 l 497 -210 l 497 839 l 665 839 l 665 -210 l 857 -210 l 857 839 l 965 839 l 965 1013 l 306 1013 q 90 944 167 1013 q 13 750 13 876 q 90 562 13 632 q 306 496 167 492 l 306 -210 z "},"©":{"ha":1142,"x_min":32,"x_max":1111,"o":"m 32 506 q 101 235 32 351 q 292 53 169 118 q 571 -12 414 -12 q 851 53 729 -12 q 1042 235 974 118 q 1111 506 1111 351 q 1042 778 1111 661 q 851 960 974 894 q 571 1025 729 1025 q 292 960 414 1025 q 101 778 169 894 q 32 506 32 661 m 122 506 q 178 735 122 638 q 336 888 235 833 q 571 943 438 943 q 807 888 706 943 q 965 735 908 833 q 1021 506 1021 638 q 965 277 1021 375 q 807 124 908 179 q 571 69 706 69 q 336 124 438 69 q 178 277 235 179 q 122 506 122 375 m 297 506 q 374 302 297 379 q 578 225 451 225 q 763 283 690 225 q 839 436 835 342 l 693 436 q 657 372 688 396 q 578 349 626 349 q 485 388 521 349 q 450 506 450 426 q 483 621 450 578 q 579 664 515 664 q 651 644 619 664 q 692 579 683 624 l 838 579 q 764 728 833 669 q 583 788 694 788 q 375 710 453 788 q 297 506 297 633 z "},"®":{"ha":853,"x_min":58,"x_max":794,"o":"m 425 297 q 613 343 529 297 q 745 472 696 389 q 794 661 794 554 q 745 851 794 769 q 613 979 696 933 q 425 1025 529 1025 q 239 979 322 1025 q 107 851 156 933 q 58 661 58 769 q 107 472 58 554 q 239 343 156 389 q 425 297 322 297 m 425 361 q 273 399 342 361 q 164 504 204 436 q 124 661 124 572 q 164 820 124 751 q 273 927 204 889 q 425 965 342 965 q 578 927 510 965 q 687 821 646 889 q 728 663 728 753 q 688 506 728 574 q 578 399 647 438 q 425 361 510 361 m 283 506 l 381 506 l 381 613 l 436 613 q 472 601 463 613 q 482 569 482 590 l 482 546 q 488 506 482 514 l 586 506 q 583 526 583 515 q 582 544 582 536 l 582 579 q 528 650 582 642 l 528 651 q 572 681 556 658 q 589 735 589 704 q 568 800 589 778 q 515 831 547 822 q 449 839 483 839 l 283 839 l 283 506 m 433 764 q 472 753 457 764 q 486 721 486 743 q 433 678 486 678 l 381 678 l 381 764 l 433 764 z "},"℗":{"ha":1142,"x_min":32,"x_max":1111,"o":"m 571 -12 q 851 53 729 -12 q 1042 235 974 118 q 1111 506 1111 351 q 1042 778 1111 661 q 851 960 974 894 q 571 1025 729 1025 q 292 960 414 1025 q 101 778 169 894 q 32 506 32 661 q 101 235 32 351 q 292 53 169 118 q 571 -12 414 -12 m 571 69 q 336 124 438 69 q 178 277 235 179 q 122 506 122 375 q 178 735 122 638 q 336 888 235 833 q 571 943 438 943 q 807 888 706 943 q 965 735 908 833 q 1021 506 1021 638 q 965 277 1021 375 q 807 124 908 179 q 571 69 706 69 m 369 231 l 519 231 l 519 417 l 631 417 q 797 468 743 417 q 850 600 850 519 q 794 735 850 688 q 632 782 739 782 l 369 782 l 369 231 m 594 678 q 669 661 639 678 q 699 597 699 644 q 669 530 699 547 q 594 513 639 513 l 519 513 l 519 678 l 594 678 z "},"™":{"ha":1071,"x_min":7,"x_max":1015,"o":"m 457 578 l 581 578 l 581 729 l 579 857 l 582 857 l 686 578 l 785 578 l 889 857 l 893 857 l 890 729 l 892 578 l 1015 578 l 1015 1013 l 838 1013 l 739 740 l 735 740 l 633 1013 l 456 1013 l 457 578 m 132 578 l 264 578 l 264 900 l 393 900 l 393 1013 l 7 1013 l 7 900 l 132 900 l 132 578 z "},"°":{"ha":597,"x_min":47,"x_max":550,"o":"m 299 558 q 428 588 371 558 q 517 670 485 617 q 550 793 550 724 q 517 916 550 864 q 428 997 485 968 q 299 1025 371 1025 q 169 997 226 1025 q 80 916 113 968 q 47 793 47 864 q 80 670 47 724 q 169 588 113 617 q 299 558 226 558 m 299 692 q 226 719 256 692 q 196 793 196 746 q 226 866 196 839 q 299 893 256 893 q 373 866 343 893 q 403 793 403 839 q 373 719 403 746 q 299 692 343 692 z "},"|":{"ha":407,"x_min":111,"x_max":296,"o":"m 111 -93 l 296 -93 l 296 1013 l 111 1013 l 111 -93 z "},"¦":{"ha":407,"x_min":111,"x_max":296,"o":"m 111 543 l 296 543 l 296 1013 l 111 1013 l 111 543 m 111 -93 l 296 -93 l 296 376 l 111 376 l 111 -93 z "},"̈":{"ha":0,"x_min":56,"x_max":515,"o":"m 56 1044 l 231 1044 l 231 1226 l 56 1226 l 56 1044 m 339 1044 l 515 1044 l 515 1226 l 339 1226 l 339 1044 z "},"̇":{"ha":0,"x_min":56,"x_max":260,"o":"m 56 1044 l 260 1044 l 260 1236 l 56 1236 l 56 1044 z "},"̀":{"ha":0,"x_min":56,"x_max":338,"o":"m 183 1025 l 338 1025 l 258 1226 l 56 1226 l 183 1025 z "},"́":{"ha":0,"x_min":56,"x_max":338,"o":"m 56 1025 l 210 1025 l 338 1226 l 133 1226 l 56 1025 z "},"̂":{"ha":0,"x_min":56,"x_max":565,"o":"m 56 1025 l 229 1025 l 310 1132 l 392 1025 l 565 1025 l 407 1226 l 214 1226 l 56 1025 z "},"̊":{"ha":0,"x_min":56,"x_max":385,"o":"m 221 1018 q 340 1061 294 1018 q 385 1172 385 1104 q 340 1285 385 1242 q 221 1328 294 1328 q 101 1285 146 1328 q 56 1172 56 1242 q 101 1061 56 1104 q 221 1018 146 1018 m 221 1111 q 176 1128 193 1111 q 160 1172 160 1146 q 176 1217 160 1200 q 221 1235 193 1235 q 265 1217 249 1235 q 282 1172 282 1200 q 265 1128 282 1146 q 221 1111 249 1111 z "},"̃":{"ha":0,"x_min":56,"x_max":561,"o":"m 393 1032 q 488 1064 442 1031 q 561 1174 533 1097 l 479 1225 q 451 1192 469 1211 q 396 1174 432 1174 q 338 1187 364 1175 q 287 1210 313 1199 q 224 1222 261 1222 q 135 1195 181 1224 q 56 1086 89 1167 l 136 1032 q 174 1067 154 1053 q 222 1082 193 1082 q 278 1069 254 1082 q 329 1045 303 1057 q 393 1032 356 1033 z "},"̧":{"ha":0,"x_min":53,"x_max":425,"o":"m 242 -344 q 373 -304 321 -344 q 425 -192 425 -264 q 393 -102 425 -137 q 304 -61 361 -67 l 304 31 l 192 31 l 192 -126 l 222 -126 q 270 -140 253 -126 q 288 -182 288 -154 q 274 -224 288 -208 q 233 -240 260 -240 q 194 -224 207 -240 q 181 -187 182 -207 l 54 -187 q 107 -302 53 -260 q 242 -344 161 -344 z "},"̷":{"ha":0,"x_min":121,"x_max":918,"o":"m 121 -83 l 247 -83 l 918 828 l 793 828 l 121 -83 z "},"̸":{"ha":0,"x_min":69,"x_max":1051,"o":"m 69 -112 l 226 -112 l 1051 1013 l 899 1013 l 69 -112 z "},"¨":{"ha":571,"x_min":56,"x_max":515,"o":"m 56 1044 l 231 1044 l 231 1226 l 56 1226 l 56 1044 m 339 1044 l 515 1044 l 515 1226 l 339 1226 l 339 1044 z "},"˙":{"ha":315,"x_min":56,"x_max":260,"o":"m 56 1044 l 260 1044 l 260 1236 l 56 1236 l 56 1044 z "},"`":{"ha":393,"x_min":56,"x_max":338,"o":"m 183 1025 l 338 1025 l 258 1226 l 56 1226 l 183 1025 z "},"´":{"ha":393,"x_min":56,"x_max":338,"o":"m 56 1025 l 210 1025 l 338 1226 l 133 1226 l 56 1025 z "},"˝":{"ha":694,"x_min":56,"x_max":639,"o":"m 56 1025 l 203 1025 l 329 1226 l 136 1226 l 56 1025 m 314 1025 l 476 1025 l 639 1226 l 433 1226 l 314 1025 z "},"ˆ":{"ha":621,"x_min":56,"x_max":565,"o":"m 56 1025 l 229 1025 l 310 1132 l 392 1025 l 565 1025 l 407 1226 l 214 1226 l 56 1025 z "},"ˇ":{"ha":621,"x_min":56,"x_max":565,"o":"m 214 1025 l 407 1025 l 565 1226 l 392 1226 l 310 1119 l 229 1226 l 56 1226 l 214 1025 z "},"˘":{"ha":572,"x_min":56,"x_max":517,"o":"m 286 1010 q 454 1068 392 1010 q 517 1225 517 1126 l 383 1225 q 357 1151 383 1176 q 286 1125 331 1125 q 217 1150 243 1125 q 190 1225 190 1175 l 56 1225 q 118 1068 56 1126 q 286 1010 181 1010 z "},"˚":{"ha":440,"x_min":56,"x_max":385,"o":"m 221 1018 q 340 1061 294 1018 q 385 1172 385 1104 q 340 1285 385 1242 q 221 1328 294 1328 q 101 1285 146 1328 q 56 1172 56 1242 q 101 1061 56 1104 q 221 1018 146 1018 m 221 1111 q 176 1128 193 1111 q 160 1172 160 1146 q 176 1217 160 1200 q 221 1235 193 1235 q 265 1217 249 1235 q 282 1172 282 1200 q 265 1128 282 1146 q 221 1111 249 1111 z "},"˜":{"ha":617,"x_min":56,"x_max":561,"o":"m 393 1032 q 488 1064 442 1031 q 561 1174 533 1097 l 479 1225 q 451 1192 469 1211 q 396 1174 432 1174 q 338 1187 364 1175 q 287 1210 313 1199 q 224 1222 261 1222 q 135 1195 181 1224 q 56 1086 89 1167 l 136 1032 q 174 1067 154 1053 q 222 1082 193 1082 q 278 1069 254 1082 q 329 1045 303 1057 q 393 1032 356 1033 z "},"¯":{"ha":603,"x_min":56,"x_max":547,"o":"m 56 1049 l 547 1049 l 547 1200 l 56 1200 l 56 1049 z "},"¸":{"ha":481,"x_min":53,"x_max":425,"o":"m 242 -344 q 373 -304 321 -344 q 425 -192 425 -264 q 393 -102 425 -137 q 304 -61 361 -67 l 304 31 l 192 31 l 192 -126 l 222 -126 q 270 -140 253 -126 q 288 -182 288 -154 q 274 -224 288 -208 q 233 -240 260 -240 q 194 -224 207 -240 q 181 -187 182 -207 l 54 -187 q 107 -302 53 -260 q 242 -344 161 -344 z "},"˛":{"ha":406,"x_min":53,"x_max":350,"o":"m 229 -269 q 350 -249 308 -269 l 350 -137 q 312 -150 336 -146 q 267 -154 288 -154 q 216 -139 236 -154 q 196 -93 196 -124 q 219 -36 196 -61 q 279 0 242 -11 l 165 18 q 84 -37 115 3 q 53 -131 53 -76 q 100 -232 53 -194 q 229 -269 147 -269 z "}}}
